<svg width="252" height="283" viewBox="0 0 252 283" fill="none" xmlns="http://www.w3.org/2000/svg">
<g filter="url(#filter0_d_302_5171)">
<g filter="url(#filter1_d_302_5171)">
<path d="M80.5705 53.6347C78.2913 54.9404 75.756 53.2985 73.8173 54.8604C64.9662 62.6179 68.4483 56.2253 61.535 64.0605C57.8447 68.243 51.2282 77.8564 47.0458 81.4594C43.0612 84.892 44.209 91.3112 42.3226 96.1626C39.4318 103.597 33.4049 105.873 30.7765 113.459C28.099 121.188 31.203 132.265 31.4875 140.491C31.9758 154.616 29.143 163.289 37.1161 175.355C41.9987 182.744 49.5215 185.43 53.0172 193.619C56.5068 201.794 58.8339 203.541 63.5518 210.993C67.4998 217.23 78.7815 215.677 85.0587 219.341C88.5475 221.378 95.569 220.216 99.6404 220.3C112.146 220.556 114.143 230.229 125.906 226.77C128.098 226.125 150.889 223.362 152.919 221.873C162.986 214.494 159.849 211.799 170.671 205.6C181.235 199.547 185.442 195.958 192.008 185.538C199.871 173.059 205.833 178.245 207.882 147.082C209.056 141.618 210.262 137.535 208.864 132.133C207.051 125.122 212.218 122.989 207.912 117.057C204.568 112.451 203.671 98.6497 201.41 93.2749C199.903 89.6937 194.47 84.7673 192.417 81.4687C189.391 76.6064 191.176 74.691 186.11 72.2508C184.947 66.4022 174.449 66.934 173.478 61.4111C172.744 57.2419 162.305 55.1974 161.228 51.1132C160.079 46.7563 158.484 42.6841 156.465 38.6856C155.868 37.5021 155.598 35.2811 154.648 34.386C150.924 30.8786 138.535 24.5579 134.095 25.0201C128.758 25.5757 122.063 39.6953 116.794 38.2347C115.702 37.9322 105.675 43.0108 104.589 43.5365C99.6851 45.9112 100.636 42.7255 96.0914 45.9188C93.8829 47.4707 90.7964 46.229 88.1692 46.6911C85.8113 47.1059 82.6844 52.4237 80.5705 53.6347Z" fill="white" stroke="white" stroke-width="19.4106" stroke-linecap="round"/>
<path d="M116.62 44.1789C118.541 34.9482 127.581 29.0224 136.812 30.943L145.169 32.6811C154.399 34.6017 160.325 43.6416 158.405 52.8723L157.967 54.9715C174.218 62.5928 188.277 75.2657 197.539 92.2258C220.698 134.635 205.094 187.788 162.685 210.948C120.276 234.107 67.1218 218.503 43.9622 176.094C20.8027 133.685 36.4078 80.5308 78.8168 57.3713C90.6934 50.8855 103.413 47.4406 116.08 46.7725L116.62 44.1789Z" fill="black"/>
<path d="M150.476 99.7803L138.105 103.844" stroke="white" stroke-width="7.76422" stroke-linecap="round"/>
<path d="M103.48 90.5225L111.233 100.984" stroke="white" stroke-width="7.76422" stroke-linecap="round"/>
</g>
<path d="M144.331 116.243C144.331 115.349 143.87 114.664 143.217 114.148C142.491 113.573 142.372 111.696 143.298 111.696C143.944 111.696 144.476 111.508 145.081 111.508C146.044 111.508 147.172 111.674 148.106 111.414C149.664 110.981 150.661 112.03 151.985 112.488C152.493 112.664 153.965 112.921 154.238 113.385C154.544 113.905 154.613 114.281 154.801 114.845C155.596 117.229 154.7 120.097 154.196 122.469C153.995 123.416 154.16 124.581 153.414 125.326C152.845 125.896 152.219 126.556 152.038 127.37C151.433 130.093 152.415 133.092 153.143 135.641C153.307 136.215 154.027 136.614 154.363 137.142C154.978 138.109 154.968 139.945 155.041 141.074C155.192 143.416 155.594 145.664 155.594 148.03C155.594 149.519 155.833 151.208 155.552 152.682C155.162 154.731 153.434 154.15 151.965 153.85C149.963 153.44 147.976 152.894 145.989 152.421C145.155 152.223 142.691 151.978 142.182 151.107C141.803 150.457 142.397 149.411 142.547 148.781C143.211 145.992 146.487 144.17 146.197 140.98C146.014 138.966 145.181 137.619 143.934 136.079C143.304 135.3 142.545 134.495 141.974 133.701C140.812 132.088 140.767 129.403 141.327 127.548C142.085 125.036 143.834 123.16 144.477 120.519C144.813 119.136 144.331 117.629 144.331 116.243Z" fill="#30CCFD" stroke="#30CCFD" stroke-width="6.49747" stroke-linecap="round"/>
<path d="M102.322 112.144C102.322 111.251 102.782 110.565 103.435 110.049C104.162 109.474 104.281 107.597 103.354 107.597C102.709 107.597 102.176 107.409 101.571 107.409C100.608 107.409 99.4805 107.575 98.5465 107.315C96.9885 106.883 95.9914 107.931 94.6669 108.39C94.159 108.565 92.687 108.823 92.4142 109.287C92.1087 109.806 92.0392 110.182 91.851 110.747C91.0565 113.13 91.9528 115.998 92.4559 118.37C92.6569 119.318 92.4923 120.482 93.2381 121.228C93.8078 121.797 94.4337 122.457 94.6147 123.272C95.2197 125.994 94.2373 128.994 93.5093 131.542C93.3451 132.117 92.6255 132.515 92.2891 133.044C91.674 134.01 91.684 135.846 91.6112 136.976C91.4601 139.318 91.0584 141.565 91.0584 143.932C91.0584 145.42 90.8194 147.109 91.1001 148.583C91.4906 150.633 93.2184 150.052 94.6877 149.751C96.689 149.342 98.6759 148.796 100.664 148.322C101.497 148.124 103.962 147.88 104.47 147.008C104.849 146.359 104.255 145.312 104.105 144.683C103.441 141.893 100.165 140.072 100.455 136.882C100.638 134.867 101.472 133.52 102.718 131.98C103.348 131.202 104.107 130.396 104.679 129.602C105.84 127.989 105.886 125.305 105.325 123.449C104.567 120.937 102.818 119.061 102.176 116.42C101.839 115.037 102.322 113.531 102.322 112.144Z" fill="#30CCFD" stroke="#30CCFD" stroke-width="6.49747" stroke-linecap="round"/>
</g>
<g filter="url(#filter2_d_302_5171)">
<path d="M79.6911 252.658C80.8512 259.049 81.9269 263.229 83.0113 269.216C83.8953 269.786 84.8924 269.957 85.7917 270.487C86.4173 270.856 86.6539 271.575 87.2099 272.02C89.9675 274.23 92.9571 273.423 96.3719 273.96C98.3245 274.266 102.011 273.171 103.868 272.381C107.603 270.794 109.539 270.382 112.715 268.262C115.129 266.65 117.236 264.242 119.446 262.354C121.721 260.41 123.065 257.895 125.096 255.86C125.269 255.687 125.396 256.254 125.591 256.401C126.054 256.749 126.803 256.696 127.325 256.942C128.819 257.646 126.97 262.839 128.709 262.879C131.928 262.954 137.905 260.187 141.124 260.144C142.599 260.124 145.581 260.111 146.82 259.062C147.942 258.111 149.222 257.321 149.994 256.04C150.415 255.34 152.973 251.039 154.068 251.283C154.599 251.401 154.627 252.295 154.924 252.658C155.911 253.867 157.188 255.048 158.435 255.973C159.746 256.945 160.238 255.686 161.069 254.778C162.772 252.917 165.945 255.456 167.147 253.288C168.32 251.173 170.141 245.76 171.875 244.112C172.723 243.306 177.427 250.117 178.598 251.812L178.673 251.921C180.211 254.147 180.892 244.761 183.04 246.435C184.965 247.935 187.64 258.101 189.433 245.939C191.985 244.201 193.939 251.603 197.312 251.603C203.179 251.603 206.369 244.503 212.226 244.855C217.823 245.192 223.332 246.794 228.929 246.794C231.438 246.794 242.311 243.673 242.2 239.67C242.149 237.835 241.381 235.93 240.151 234.574C237.633 231.8 235.042 229.218 232.655 226.322C230.414 223.602 229.744 221.685 230.021 218.497C230.437 213.711 231.784 209.765 231.259 204.901C230.993 202.432 227.874 200.469 226.487 198.542C225.298 196.891 225.21 199.438 222.975 200.525C221.635 201.177 220.154 201.943 218.72 202.329C216.883 202.825 215.274 204.178 213.34 204.178C210.073 204.178 207.442 203.835 204.381 202.577C201.436 201.367 195.374 203.545 192.36 205.846C190.192 207.5 187.008 203.739 184.661 205.418C182.958 206.637 179.827 208.48 178.673 210.266C178.315 210.82 177.164 210.552 176.647 210.176C175.349 209.231 172.208 209.86 170.659 209.86C168.108 209.86 165.686 209.622 163.771 211.484C162.139 213.07 160.481 210.206 158.548 211.462C157.183 212.349 154.197 215.453 152.447 215.453C151.264 215.453 150.286 214.093 149.093 213.965C144.399 213.461 139.544 223.419 134.821 223.132C132.759 223.007 131.325 222.413 130.747 224.44C130.162 226.49 128.956 217.696 127.527 219.467C126.749 220.432 124.611 220.832 123.52 221.271C121.142 222.228 118.706 222.901 116.249 223.616C112.81 224.616 109.04 226.756 105.421 226.863C104.138 226.901 104.359 226.193 103.936 225.239C103.301 223.809 100.438 230.483 99.0733 229.8C96.5661 228.544 94.1377 227.092 91.4645 226.215C89.6047 225.604 87.6152 229.225 85.8817 228.288C84.512 227.548 84.5449 227.425 84.2609 229.1C84.0761 230.19 83.8914 227.139 83.5631 228.199C82.7081 230.958 81.7207 226.73 81.1093 229.569C80.1217 234.155 78.1455 238.214 78.0928 242.962C78.0547 246.401 79.0868 249.329 79.6911 252.658Z" fill="white"/>
<path d="M83.3604 271.209C82.1566 264.099 80.9756 259.734 79.6911 252.658C79.0868 249.329 78.0547 246.401 78.0928 242.962C78.1455 238.214 80.1217 234.155 81.1093 229.569C81.7207 226.73 82.7081 230.958 83.5631 228.199C83.8914 227.139 84.0761 230.19 84.2609 229.1C84.5449 227.425 84.512 227.548 85.8817 228.288C87.6152 229.225 89.6047 225.604 91.4645 226.215C94.1377 227.092 96.5661 228.544 99.0733 229.8C100.438 230.483 103.301 223.809 103.936 225.239C104.359 226.193 104.138 226.901 105.421 226.863C109.04 226.756 112.81 224.616 116.249 223.616C118.706 222.901 121.142 222.228 123.52 221.271C124.611 220.832 126.749 220.432 127.527 219.467C128.956 217.696 130.162 226.49 130.747 224.44C131.325 222.413 132.759 223.007 134.821 223.132C139.544 223.419 144.399 213.461 149.093 213.965C150.286 214.093 151.264 215.453 152.447 215.453C154.197 215.453 157.183 212.349 158.548 211.462C160.481 210.206 162.139 213.07 163.771 211.484C165.686 209.622 168.108 209.86 170.659 209.86C172.208 209.86 175.349 209.231 176.647 210.176C177.164 210.552 178.315 210.82 178.673 210.266C179.827 208.48 182.958 206.637 184.661 205.418C187.008 203.739 190.192 207.5 192.36 205.846C195.374 203.545 201.436 201.367 204.381 202.577C207.442 203.835 210.073 204.178 213.34 204.178C215.274 204.178 216.883 202.825 218.72 202.329C220.154 201.943 221.635 201.177 222.975 200.525C225.21 199.438 225.298 196.891 226.487 198.542C227.874 200.469 230.993 202.432 231.259 204.901C231.784 209.765 230.437 213.711 230.021 218.497C229.744 221.685 230.414 223.602 232.655 226.322C235.042 229.218 237.633 231.8 240.151 234.574C241.381 235.93 242.149 237.835 242.2 239.67C242.311 243.673 231.438 246.794 228.929 246.794C223.332 246.794 217.823 245.192 212.226 244.855C206.369 244.503 203.179 251.603 197.312 251.603C193.939 251.603 191.985 244.201 189.433 245.939C187.64 258.101 184.965 247.935 183.04 246.435C180.892 244.761 180.211 254.147 178.673 251.921C177.646 250.435 172.743 243.287 171.875 244.112C170.141 245.76 168.32 251.173 167.147 253.288C165.945 255.456 162.772 252.917 161.069 254.778C160.238 255.686 159.746 256.945 158.435 255.973C157.188 255.048 155.911 253.867 154.924 252.658C154.627 252.295 154.599 251.401 154.068 251.283C152.973 251.039 150.415 255.34 149.994 256.04C149.222 257.321 147.942 258.111 146.82 259.062C145.581 260.111 142.599 260.124 141.124 260.144C137.905 260.187 131.928 262.954 128.709 262.879C126.97 262.839 128.819 257.646 127.325 256.942C126.803 256.696 126.054 256.749 125.591 256.401C125.396 256.254 125.269 255.687 125.096 255.86C123.065 257.895 121.721 260.41 119.446 262.354C117.236 264.242 115.129 266.65 112.715 268.262C109.539 270.382 107.603 270.794 103.868 272.381C102.011 273.171 98.3245 274.266 96.3719 273.96C92.9571 273.423 89.9675 274.23 87.2099 272.02C86.6539 271.575 86.4173 270.856 85.7917 270.487C84.8733 269.946 83.853 269.779 82.9552 269.179" stroke="white" stroke-width="13.6757" stroke-linecap="round" stroke-dasharray="27.35 27.35"/>
<mask id="path-9-outside-1_302_5171" maskUnits="userSpaceOnUse" x="80.7988" y="197.658" width="156" height="74" fill="black">
<rect fill="white" x="80.7988" y="197.658" width="156" height="74"/>
<path d="M114.365 253.557C114.842 257.296 114.037 260.391 111.95 262.842C110.85 264.133 108.713 265.767 105.539 267.744C104.079 268.336 102.54 268.803 100.922 269.147C96.1688 270.156 92.5359 269.888 90.0236 268.342C89.3819 267.809 88.0449 262.756 86.0124 253.182C83.6007 241.821 82.5464 235.527 82.8496 234.3C84.7801 231.776 88.122 230.01 92.8753 229.001C94.2575 228.707 95.3169 228.553 96.0534 228.537C99.912 228.458 102.966 229.237 105.216 230.873C107.459 232.475 108.96 234.817 109.719 237.897C109.836 239.774 109.409 241.415 108.439 242.819C108.007 243.439 107.015 244.407 105.462 245.723C107.739 245.663 109.712 246.407 111.379 247.955C113.08 249.496 114.076 251.364 114.365 253.557ZM97.8173 238.838L97.7775 238.899C97.4229 238.058 96.5882 237.778 95.2734 238.057C94.8352 238.15 94.5895 238.237 94.5364 238.319C94.3076 238.403 94.1349 238.668 94.0185 239.116C94.6768 241.055 95.166 243.276 95.4861 245.78L97.4105 243.892C98.0497 241.924 98.2727 240.485 98.0795 239.575C98.0437 239.406 97.9563 239.161 97.8173 238.838ZM100.496 256.184L100.506 256.235C100.578 255.409 100.556 254.727 100.442 254.188C100.112 252.637 99.4254 251.972 98.3803 252.194C97.8072 252.316 97.2975 252.653 96.8511 253.206C96.9779 253.637 97.0991 254.457 97.2147 255.665C97.313 257.124 97.3943 258.005 97.4588 258.309C97.5017 258.511 97.6463 259.026 97.8927 259.855C98.8754 259.505 99.5685 258.953 99.9719 258.198C100.143 257.844 100.318 257.173 100.496 256.184Z"/>
<path d="M146.543 250.161L146.604 250.201C146.307 253.118 145.214 255.605 143.326 257.661C141.471 259.711 139.094 261.044 136.195 261.659C130.834 262.797 126.242 261.658 122.416 258.242C119.158 255.341 117.006 251.429 115.961 246.507C115.482 244.248 115.24 242.115 115.237 240.108C115.223 230.915 118.099 225.126 123.863 222.739C124.381 222.524 124.944 222.352 125.55 222.223C128.247 221.65 131.05 221.989 133.957 223.239C136.899 224.482 139.08 226.291 140.5 228.667C143.569 233.829 145.432 237.96 146.091 241.062C146.649 243.691 146.783 246.728 146.492 250.172L146.543 250.161ZM133.229 249.183L133.218 249.132C134.16 248.756 134.252 246.781 133.493 243.208C133.057 241.151 132.47 239.303 131.735 237.662C130.992 235.988 130.394 235.164 129.941 235.189C129.157 235.144 128.654 236.097 128.434 238.046C128.213 239.995 128.336 242.065 128.801 244.257C129.667 248.336 131.143 249.978 133.229 249.183Z"/>
<path d="M187.819 243.618C188.191 245.371 188.127 246.812 187.627 247.94C187.218 248.837 186.584 249.5 185.724 249.929C185.281 250.164 184.625 250.479 183.758 250.875C183.086 251.194 182.649 251.375 182.446 251.418C180.997 251.725 179.63 251.346 178.347 250.28C177.057 249.18 176.207 247.669 175.799 245.747C175.642 245.006 175.462 243.247 175.261 240.471C175.12 238.317 174.787 236.661 174.259 235.505C174.198 236.046 174.001 237.691 173.669 240.439C173.209 243.919 172.6 246.109 171.84 247.011C171.42 247.522 170.856 247.854 170.148 248.004C169.609 248.118 169.013 248.051 168.361 247.802C166.14 246.3 163.948 242.943 161.784 237.73C161.795 238.609 161.893 239.487 162.079 240.363C162.186 240.869 162.661 242.441 163.503 245.081C164.113 246.96 164.439 248.494 164.48 249.683C164.525 251.223 164.08 252.692 163.143 254.089C162.106 255.013 161.048 255.59 159.97 255.819C158.486 256.134 156.982 255.767 155.455 254.717C153.572 252.65 152.43 251.254 152.029 250.529C151.202 249.119 150.466 246.897 149.822 243.863C149.228 241.065 148.412 236.06 147.374 228.846C147.02 226.35 147.318 224.102 148.268 222.104C149.244 220.064 150.793 218.485 152.916 217.365C157.371 216.278 161.595 219.415 165.589 226.776C165.45 225.291 165.564 223.258 165.933 220.679C166.47 216.901 167.465 214.452 168.918 213.333C170.403 212.525 171.701 212.003 172.814 211.767C174.668 211.373 176.205 211.646 177.426 212.584C178.958 213.492 180.173 214.82 181.072 216.566C181.674 217.742 182.316 219.685 182.996 222.394C183.56 224.881 184.123 227.369 184.686 229.856C185.995 235.356 187.036 239.927 187.809 243.568L187.819 243.618Z"/>
<path d="M217.001 231.769C217.478 235.508 216.673 238.603 214.586 241.054C213.486 242.345 211.349 243.978 208.175 245.956C206.715 246.548 205.177 247.015 203.558 247.359C198.805 248.368 195.172 248.1 192.66 246.554C192.018 246.021 190.681 240.967 188.649 231.393C186.237 220.032 185.183 213.739 185.486 212.512C187.416 209.988 190.758 208.222 195.511 207.212C196.894 206.919 197.953 206.765 198.69 206.749C202.548 206.67 205.602 207.448 207.852 209.085C210.095 210.687 211.596 213.028 212.356 216.108C212.472 217.986 212.046 219.627 211.075 221.031C210.643 221.651 209.651 222.619 208.098 223.935C210.375 223.874 212.348 224.618 214.015 226.167C215.716 227.708 216.712 229.576 217.001 231.769ZM200.454 217.05L200.414 217.111C200.059 216.27 199.224 215.989 197.91 216.269C197.471 216.362 197.226 216.449 197.173 216.531C196.944 216.615 196.771 216.88 196.655 217.328C197.313 219.267 197.802 221.488 198.122 223.992L200.047 222.104C200.686 220.136 200.909 218.697 200.716 217.787C200.68 217.618 200.593 217.373 200.454 217.05ZM203.132 234.396L203.143 234.447C203.214 233.621 203.192 232.939 203.078 232.399C202.749 230.849 202.062 230.184 201.016 230.406C200.443 230.528 199.934 230.865 199.487 231.418C199.614 231.849 199.735 232.669 199.851 233.877C199.949 235.336 200.031 236.217 200.095 236.52C200.138 236.723 200.283 237.238 200.529 238.067C201.512 237.717 202.205 237.165 202.608 236.41C202.78 236.056 202.954 235.385 203.132 234.396Z"/>
<path d="M228.838 201.512L228.878 201.45C229.74 202.359 230.315 203.488 230.601 204.837C230.823 205.882 230.877 207.632 230.764 210.087C230.685 212.535 230.787 214.345 231.071 215.518C231.239 219.956 231.535 223.346 231.962 225.686C231.895 226.863 230.895 227.798 228.963 228.49C228.378 228.72 227.816 228.892 227.276 229.006C225.49 229.386 224.02 229.187 222.869 228.409C221.888 227.772 221.058 226.187 220.38 223.653C220.266 222.62 220.084 221.514 219.834 220.334C219.562 219.053 219.067 217.22 218.349 214.836C217.665 212.445 217.198 210.659 216.948 209.479C216.461 207.187 216.294 205.073 216.447 203.138L216.581 203.268C216.782 202.556 216.945 202.081 217.071 201.843C217.327 201.225 217.694 200.795 218.171 200.553C218.674 200.27 219.246 200.06 219.887 199.924C220.494 199.795 221.99 199.707 224.375 199.658C226.399 199.898 227.887 200.516 228.838 201.512ZM233.155 232.303C233.868 233.173 234.35 234.199 234.601 235.378C234.822 236.424 234.846 237.528 234.67 238.693C233.781 240.643 231.869 241.93 228.936 242.553C228.296 242.689 227.648 242.791 226.993 242.859C224.369 242.113 222.653 240.504 221.847 238.033C221.78 237.554 221.6 236.87 221.306 235.981C221.513 233.471 222.934 231.619 225.569 230.426C227.642 230.232 229.003 230.172 229.653 230.246C231.176 230.451 232.344 231.137 233.155 232.303Z"/>
</mask>
<path d="M114.365 253.557C114.842 257.296 114.037 260.391 111.95 262.842C110.85 264.133 108.713 265.767 105.539 267.744C104.079 268.336 102.54 268.803 100.922 269.147C96.1688 270.156 92.5359 269.888 90.0236 268.342C89.3819 267.809 88.0449 262.756 86.0124 253.182C83.6007 241.821 82.5464 235.527 82.8496 234.3C84.7801 231.776 88.122 230.01 92.8753 229.001C94.2575 228.707 95.3169 228.553 96.0534 228.537C99.912 228.458 102.966 229.237 105.216 230.873C107.459 232.475 108.96 234.817 109.719 237.897C109.836 239.774 109.409 241.415 108.439 242.819C108.007 243.439 107.015 244.407 105.462 245.723C107.739 245.663 109.712 246.407 111.379 247.955C113.08 249.496 114.076 251.364 114.365 253.557ZM97.8173 238.838L97.7775 238.899C97.4229 238.058 96.5882 237.778 95.2734 238.057C94.8352 238.15 94.5895 238.237 94.5364 238.319C94.3076 238.403 94.1349 238.668 94.0185 239.116C94.6768 241.055 95.166 243.276 95.4861 245.78L97.4105 243.892C98.0497 241.924 98.2727 240.485 98.0795 239.575C98.0437 239.406 97.9563 239.161 97.8173 238.838ZM100.496 256.184L100.506 256.235C100.578 255.409 100.556 254.727 100.442 254.188C100.112 252.637 99.4254 251.972 98.3803 252.194C97.8072 252.316 97.2975 252.653 96.8511 253.206C96.9779 253.637 97.0991 254.457 97.2147 255.665C97.313 257.124 97.3943 258.005 97.4588 258.309C97.5017 258.511 97.6463 259.026 97.8927 259.855C98.8754 259.505 99.5685 258.953 99.9719 258.198C100.143 257.844 100.318 257.173 100.496 256.184Z" fill="#D93F0F"/>
<path d="M146.543 250.161L146.604 250.201C146.307 253.118 145.214 255.605 143.326 257.661C141.471 259.711 139.094 261.044 136.195 261.659C130.834 262.797 126.242 261.658 122.416 258.242C119.158 255.341 117.006 251.429 115.961 246.507C115.482 244.248 115.24 242.115 115.237 240.108C115.223 230.915 118.099 225.126 123.863 222.739C124.381 222.524 124.944 222.352 125.55 222.223C128.247 221.65 131.05 221.989 133.957 223.239C136.899 224.482 139.08 226.291 140.5 228.667C143.569 233.829 145.432 237.96 146.091 241.062C146.649 243.691 146.783 246.728 146.492 250.172L146.543 250.161ZM133.229 249.183L133.218 249.132C134.16 248.756 134.252 246.781 133.493 243.208C133.057 241.151 132.47 239.303 131.735 237.662C130.992 235.988 130.394 235.164 129.941 235.189C129.157 235.144 128.654 236.097 128.434 238.046C128.213 239.995 128.336 242.065 128.801 244.257C129.667 248.336 131.143 249.978 133.229 249.183Z" fill="#D93F0F"/>
<path d="M187.819 243.618C188.191 245.371 188.127 246.812 187.627 247.94C187.218 248.837 186.584 249.5 185.724 249.929C185.281 250.164 184.625 250.479 183.758 250.875C183.086 251.194 182.649 251.375 182.446 251.418C180.997 251.725 179.63 251.346 178.347 250.28C177.057 249.18 176.207 247.669 175.799 245.747C175.642 245.006 175.462 243.247 175.261 240.471C175.12 238.317 174.787 236.661 174.259 235.505C174.198 236.046 174.001 237.691 173.669 240.439C173.209 243.919 172.6 246.109 171.84 247.011C171.42 247.522 170.856 247.854 170.148 248.004C169.609 248.118 169.013 248.051 168.361 247.802C166.14 246.3 163.948 242.943 161.784 237.73C161.795 238.609 161.893 239.487 162.079 240.363C162.186 240.869 162.661 242.441 163.503 245.081C164.113 246.96 164.439 248.494 164.48 249.683C164.525 251.223 164.08 252.692 163.143 254.089C162.106 255.013 161.048 255.59 159.97 255.819C158.486 256.134 156.982 255.767 155.455 254.717C153.572 252.65 152.43 251.254 152.029 250.529C151.202 249.119 150.466 246.897 149.822 243.863C149.228 241.065 148.412 236.06 147.374 228.846C147.02 226.35 147.318 224.102 148.268 222.104C149.244 220.064 150.793 218.485 152.916 217.365C157.371 216.278 161.595 219.415 165.589 226.776C165.45 225.291 165.564 223.258 165.933 220.679C166.47 216.901 167.465 214.452 168.918 213.333C170.403 212.525 171.701 212.003 172.814 211.767C174.668 211.373 176.205 211.646 177.426 212.584C178.958 213.492 180.173 214.82 181.072 216.566C181.674 217.742 182.316 219.685 182.996 222.394C183.56 224.881 184.123 227.369 184.686 229.856C185.995 235.356 187.036 239.927 187.809 243.568L187.819 243.618Z" fill="#D93F0F"/>
<path d="M217.001 231.769C217.478 235.508 216.673 238.603 214.586 241.054C213.486 242.345 211.349 243.978 208.175 245.956C206.715 246.548 205.177 247.015 203.558 247.359C198.805 248.368 195.172 248.1 192.66 246.554C192.018 246.021 190.681 240.967 188.649 231.393C186.237 220.032 185.183 213.739 185.486 212.512C187.416 209.988 190.758 208.222 195.511 207.212C196.894 206.919 197.953 206.765 198.69 206.749C202.548 206.67 205.602 207.448 207.852 209.085C210.095 210.687 211.596 213.028 212.356 216.108C212.472 217.986 212.046 219.627 211.075 221.031C210.643 221.651 209.651 222.619 208.098 223.935C210.375 223.874 212.348 224.618 214.015 226.167C215.716 227.708 216.712 229.576 217.001 231.769ZM200.454 217.05L200.414 217.111C200.059 216.27 199.224 215.989 197.91 216.269C197.471 216.362 197.226 216.449 197.173 216.531C196.944 216.615 196.771 216.88 196.655 217.328C197.313 219.267 197.802 221.488 198.122 223.992L200.047 222.104C200.686 220.136 200.909 218.697 200.716 217.787C200.68 217.618 200.593 217.373 200.454 217.05ZM203.132 234.396L203.143 234.447C203.214 233.621 203.192 232.939 203.078 232.399C202.749 230.849 202.062 230.184 201.016 230.406C200.443 230.528 199.934 230.865 199.487 231.418C199.614 231.849 199.735 232.669 199.851 233.877C199.949 235.336 200.031 236.217 200.095 236.52C200.138 236.723 200.283 237.238 200.529 238.067C201.512 237.717 202.205 237.165 202.608 236.41C202.78 236.056 202.954 235.385 203.132 234.396Z" fill="#D93F0F"/>
<path d="M228.838 201.512L228.878 201.45C229.74 202.359 230.315 203.488 230.601 204.837C230.823 205.882 230.877 207.632 230.764 210.087C230.685 212.535 230.787 214.345 231.071 215.518C231.239 219.956 231.535 223.346 231.962 225.686C231.895 226.863 230.895 227.798 228.963 228.49C228.378 228.72 227.816 228.892 227.276 229.006C225.49 229.386 224.02 229.187 222.869 228.409C221.888 227.772 221.058 226.187 220.38 223.653C220.266 222.62 220.084 221.514 219.834 220.334C219.562 219.053 219.067 217.22 218.349 214.836C217.665 212.445 217.198 210.659 216.948 209.479C216.461 207.187 216.294 205.073 216.447 203.138L216.581 203.268C216.782 202.556 216.945 202.081 217.071 201.843C217.327 201.225 217.694 200.795 218.171 200.553C218.674 200.27 219.246 200.06 219.887 199.924C220.494 199.795 221.99 199.707 224.375 199.658C226.399 199.898 227.887 200.516 228.838 201.512ZM233.155 232.303C233.868 233.173 234.35 234.199 234.601 235.378C234.822 236.424 234.846 237.528 234.67 238.693C233.781 240.643 231.869 241.93 228.936 242.553C228.296 242.689 227.648 242.791 226.993 242.859C224.369 242.113 222.653 240.504 221.847 238.033C221.78 237.554 221.6 236.87 221.306 235.981C221.513 233.471 222.934 231.619 225.569 230.426C227.642 230.232 229.003 230.172 229.653 230.246C231.176 230.451 232.344 231.137 233.155 232.303Z" fill="#D93F0F"/>
<path d="M114.365 253.557C114.842 257.296 114.037 260.391 111.95 262.842C110.85 264.133 108.713 265.767 105.539 267.744C104.079 268.336 102.54 268.803 100.922 269.147C96.1688 270.156 92.5359 269.888 90.0236 268.342C89.3819 267.809 88.0449 262.756 86.0124 253.182C83.6007 241.821 82.5464 235.527 82.8496 234.3C84.7801 231.776 88.122 230.01 92.8753 229.001C94.2575 228.707 95.3169 228.553 96.0534 228.537C99.912 228.458 102.966 229.237 105.216 230.873C107.459 232.475 108.96 234.817 109.719 237.897C109.836 239.774 109.409 241.415 108.439 242.819C108.007 243.439 107.015 244.407 105.462 245.723C107.739 245.663 109.712 246.407 111.379 247.955C113.08 249.496 114.076 251.364 114.365 253.557ZM97.8173 238.838L97.7775 238.899C97.4229 238.058 96.5882 237.778 95.2734 238.057C94.8352 238.15 94.5895 238.237 94.5364 238.319C94.3076 238.403 94.1349 238.668 94.0185 239.116C94.6768 241.055 95.166 243.276 95.4861 245.78L97.4105 243.892C98.0497 241.924 98.2727 240.485 98.0795 239.575C98.0437 239.406 97.9563 239.161 97.8173 238.838ZM100.496 256.184L100.506 256.235C100.578 255.409 100.556 254.727 100.442 254.188C100.112 252.637 99.4254 251.972 98.3803 252.194C97.8072 252.316 97.2975 252.653 96.8511 253.206C96.9779 253.637 97.0991 254.457 97.2147 255.665C97.313 257.124 97.3943 258.005 97.4588 258.309C97.5017 258.511 97.6463 259.026 97.8927 259.855C98.8754 259.505 99.5685 258.953 99.9719 258.198C100.143 257.844 100.318 257.173 100.496 256.184Z" stroke="white" stroke-width="2.73515" mask="url(#path-9-outside-1_302_5171)"/>
<path d="M146.543 250.161L146.604 250.201C146.307 253.118 145.214 255.605 143.326 257.661C141.471 259.711 139.094 261.044 136.195 261.659C130.834 262.797 126.242 261.658 122.416 258.242C119.158 255.341 117.006 251.429 115.961 246.507C115.482 244.248 115.24 242.115 115.237 240.108C115.223 230.915 118.099 225.126 123.863 222.739C124.381 222.524 124.944 222.352 125.55 222.223C128.247 221.65 131.05 221.989 133.957 223.239C136.899 224.482 139.08 226.291 140.5 228.667C143.569 233.829 145.432 237.96 146.091 241.062C146.649 243.691 146.783 246.728 146.492 250.172L146.543 250.161ZM133.229 249.183L133.218 249.132C134.16 248.756 134.252 246.781 133.493 243.208C133.057 241.151 132.47 239.303 131.735 237.662C130.992 235.988 130.394 235.164 129.941 235.189C129.157 235.144 128.654 236.097 128.434 238.046C128.213 239.995 128.336 242.065 128.801 244.257C129.667 248.336 131.143 249.978 133.229 249.183Z" stroke="white" stroke-width="2.73515" mask="url(#path-9-outside-1_302_5171)"/>
<path d="M187.819 243.618C188.191 245.371 188.127 246.812 187.627 247.94C187.218 248.837 186.584 249.5 185.724 249.929C185.281 250.164 184.625 250.479 183.758 250.875C183.086 251.194 182.649 251.375 182.446 251.418C180.997 251.725 179.63 251.346 178.347 250.28C177.057 249.18 176.207 247.669 175.799 245.747C175.642 245.006 175.462 243.247 175.261 240.471C175.12 238.317 174.787 236.661 174.259 235.505C174.198 236.046 174.001 237.691 173.669 240.439C173.209 243.919 172.6 246.109 171.84 247.011C171.42 247.522 170.856 247.854 170.148 248.004C169.609 248.118 169.013 248.051 168.361 247.802C166.14 246.3 163.948 242.943 161.784 237.73C161.795 238.609 161.893 239.487 162.079 240.363C162.186 240.869 162.661 242.441 163.503 245.081C164.113 246.96 164.439 248.494 164.48 249.683C164.525 251.223 164.08 252.692 163.143 254.089C162.106 255.013 161.048 255.59 159.97 255.819C158.486 256.134 156.982 255.767 155.455 254.717C153.572 252.65 152.43 251.254 152.029 250.529C151.202 249.119 150.466 246.897 149.822 243.863C149.228 241.065 148.412 236.06 147.374 228.846C147.02 226.35 147.318 224.102 148.268 222.104C149.244 220.064 150.793 218.485 152.916 217.365C157.371 216.278 161.595 219.415 165.589 226.776C165.45 225.291 165.564 223.258 165.933 220.679C166.47 216.901 167.465 214.452 168.918 213.333C170.403 212.525 171.701 212.003 172.814 211.767C174.668 211.373 176.205 211.646 177.426 212.584C178.958 213.492 180.173 214.82 181.072 216.566C181.674 217.742 182.316 219.685 182.996 222.394C183.56 224.881 184.123 227.369 184.686 229.856C185.995 235.356 187.036 239.927 187.809 243.568L187.819 243.618Z" stroke="white" stroke-width="2.73515" mask="url(#path-9-outside-1_302_5171)"/>
<path d="M217.001 231.769C217.478 235.508 216.673 238.603 214.586 241.054C213.486 242.345 211.349 243.978 208.175 245.956C206.715 246.548 205.177 247.015 203.558 247.359C198.805 248.368 195.172 248.1 192.66 246.554C192.018 246.021 190.681 240.967 188.649 231.393C186.237 220.032 185.183 213.739 185.486 212.512C187.416 209.988 190.758 208.222 195.511 207.212C196.894 206.919 197.953 206.765 198.69 206.749C202.548 206.67 205.602 207.448 207.852 209.085C210.095 210.687 211.596 213.028 212.356 216.108C212.472 217.986 212.046 219.627 211.075 221.031C210.643 221.651 209.651 222.619 208.098 223.935C210.375 223.874 212.348 224.618 214.015 226.167C215.716 227.708 216.712 229.576 217.001 231.769ZM200.454 217.05L200.414 217.111C200.059 216.27 199.224 215.989 197.91 216.269C197.471 216.362 197.226 216.449 197.173 216.531C196.944 216.615 196.771 216.88 196.655 217.328C197.313 219.267 197.802 221.488 198.122 223.992L200.047 222.104C200.686 220.136 200.909 218.697 200.716 217.787C200.68 217.618 200.593 217.373 200.454 217.05ZM203.132 234.396L203.143 234.447C203.214 233.621 203.192 232.939 203.078 232.399C202.749 230.849 202.062 230.184 201.016 230.406C200.443 230.528 199.934 230.865 199.487 231.418C199.614 231.849 199.735 232.669 199.851 233.877C199.949 235.336 200.031 236.217 200.095 236.52C200.138 236.723 200.283 237.238 200.529 238.067C201.512 237.717 202.205 237.165 202.608 236.41C202.78 236.056 202.954 235.385 203.132 234.396Z" stroke="white" stroke-width="2.73515" mask="url(#path-9-outside-1_302_5171)"/>
<path d="M228.838 201.512L228.878 201.45C229.74 202.359 230.315 203.488 230.601 204.837C230.823 205.882 230.877 207.632 230.764 210.087C230.685 212.535 230.787 214.345 231.071 215.518C231.239 219.956 231.535 223.346 231.962 225.686C231.895 226.863 230.895 227.798 228.963 228.49C228.378 228.72 227.816 228.892 227.276 229.006C225.49 229.386 224.02 229.187 222.869 228.409C221.888 227.772 221.058 226.187 220.38 223.653C220.266 222.62 220.084 221.514 219.834 220.334C219.562 219.053 219.067 217.22 218.349 214.836C217.665 212.445 217.198 210.659 216.948 209.479C216.461 207.187 216.294 205.073 216.447 203.138L216.581 203.268C216.782 202.556 216.945 202.081 217.071 201.843C217.327 201.225 217.694 200.795 218.171 200.553C218.674 200.27 219.246 200.06 219.887 199.924C220.494 199.795 221.99 199.707 224.375 199.658C226.399 199.898 227.887 200.516 228.838 201.512ZM233.155 232.303C233.868 233.173 234.35 234.199 234.601 235.378C234.822 236.424 234.846 237.528 234.67 238.693C233.781 240.643 231.869 241.93 228.936 242.553C228.296 242.689 227.648 242.791 226.993 242.859C224.369 242.113 222.653 240.504 221.847 238.033C221.78 237.554 221.6 236.87 221.306 235.981C221.513 233.471 222.934 231.619 225.569 230.426C227.642 230.232 229.003 230.172 229.653 230.246C231.176 230.451 232.344 231.137 233.155 232.303Z" stroke="white" stroke-width="2.73515" mask="url(#path-9-outside-1_302_5171)"/>
</g>
<defs>
<filter id="filter0_d_302_5171" x="17.9888" y="13.292" width="203.392" height="225.93" filterUnits="userSpaceOnUse" color-interpolation-filters="sRGB">
<feFlood flood-opacity="0" result="BackgroundImageFix"/>
<feColorMatrix in="SourceAlpha" type="matrix" values="0 0 0 0 0 0 0 0 0 0 0 0 0 0 0 0 0 0 127 0" result="hardAlpha"/>
<feOffset/>
<feGaussianBlur stdDeviation="1"/>
<feComposite in2="hardAlpha" operator="out"/>
<feColorMatrix type="matrix" values="0 0 0 0 0.243465 0 0 0 0 0.243465 0 0 0 0 0.243465 0 0 0 0.8 0"/>
<feBlend mode="normal" in2="BackgroundImageFix" result="effect1_dropShadow_302_5171"/>
<feBlend mode="normal" in="SourceGraphic" in2="effect1_dropShadow_302_5171" result="shape"/>
</filter>
<filter id="filter1_d_302_5171" x="14.2603" y="9.56351" width="210.849" height="233.387" filterUnits="userSpaceOnUse" color-interpolation-filters="sRGB">
<feFlood flood-opacity="0" result="BackgroundImageFix"/>
<feColorMatrix in="SourceAlpha" type="matrix" values="0 0 0 0 0 0 0 0 0 0 0 0 0 0 0 0 0 0 127 0" result="hardAlpha"/>
<feOffset/>
<feGaussianBlur stdDeviation="2.86424"/>
<feComposite in2="hardAlpha" operator="out"/>
<feColorMatrix type="matrix" values="0 0 0 0 0.243465 0 0 0 0 0.243465 0 0 0 0 0.243465 0 0 0 0.8 0"/>
<feBlend mode="normal" in2="BackgroundImageFix" result="effect1_dropShadow_302_5171"/>
<feBlend mode="normal" in="SourceGraphic" in2="effect1_dropShadow_302_5171" result="shape"/>
</filter>
<filter id="filter2_d_302_5171" x="69.2539" y="189.158" width="181.785" height="93.6924" filterUnits="userSpaceOnUse" color-interpolation-filters="sRGB">
<feFlood flood-opacity="0" result="BackgroundImageFix"/>
<feColorMatrix in="SourceAlpha" type="matrix" values="0 0 0 0 0 0 0 0 0 0 0 0 0 0 0 0 0 0 127 0" result="hardAlpha"/>
<feOffset/>
<feGaussianBlur stdDeviation="1"/>
<feComposite in2="hardAlpha" operator="out"/>
<feColorMatrix type="matrix" values="0 0 0 0 0.243465 0 0 0 0 0.243465 0 0 0 0 0.243465 0 0 0 0.8 0"/>
<feBlend mode="normal" in2="BackgroundImageFix" result="effect1_dropShadow_302_5171"/>
<feBlend mode="normal" in="SourceGraphic" in2="effect1_dropShadow_302_5171" result="shape"/>
</filter>
</defs>
</svg>
