<svg width="232" height="213" viewBox="0 0 232 213" fill="none" xmlns="http://www.w3.org/2000/svg">
<path d="M33.4632 170.15C32.3192 175.25 31.5868 179.267 32.5922 184.481C32.5922 185.732 34.9063 188.677 36.0762 189.317C36.806 189.716 37.1938 190.613 37.8182 191.152C38.345 191.607 39.1319 191.573 39.6376 192.034C40.6501 192.958 40.8396 194.596 41.6506 195.705C41.9681 196.14 43.6667 195.939 44.1281 195.988C46.5548 196.246 48.9478 197.188 51.3865 197.188C58.4744 197.188 65.6262 197.333 72.7165 197.523C77.6356 197.655 82.5443 198.837 87.4655 198.229C94.2228 197.395 101.06 195.639 107.518 193.676C110.85 192.663 114.117 191.473 117.409 190.393C118.793 189.939 118.934 190.34 119.518 191.346C119.792 191.818 119.785 192.938 120.273 193.235C121.212 193.805 123.77 193.371 124.783 193.411C130.444 193.635 136.596 194.353 141.913 196.235C142.788 196.544 145.93 198.754 146.868 198.388C149.039 197.539 151.295 197.012 153.526 196.305C154.659 195.947 157.096 195.748 157.939 194.894C158.522 194.304 159.101 193.39 159.604 192.74C162.858 188.537 165.58 184.225 166.011 178.922C166.228 176.251 166.293 173.79 166.92 171.174C167.593 168.372 167.607 166.214 166.34 163.656C165.498 161.955 164.821 159.51 163.417 158.132C162.284 157.019 160.98 156.086 159.914 154.919C158.071 152.903 155.637 151.367 153.546 149.572C152.357 148.551 152.39 148.315 151.049 148.654C146.405 149.83 139.653 152.859 135.293 149.607C134.406 148.945 132.966 148.988 132.042 148.266C131.485 147.831 130.641 147.631 129.874 147.631C127.491 147.631 125.485 149.671 123.119 149.837C119.391 150.098 115.623 150.631 111.892 150.79C106.666 151.011 101.365 150.807 96.1368 150.807C91.8641 150.807 87.59 150.49 83.304 150.49C81.9528 150.49 81.5829 148.112 81.0975 147.066C80.4484 145.667 74.1512 145.35 73.0842 146.431C72.7025 146.817 72.7661 147.356 72.3874 147.701C71.3054 148.688 69.3804 148.961 68.013 149.466C63.8992 150.986 60.375 153.953 56.9029 156.42C55.7357 157.249 55.3443 156.63 55.2383 155.325C55.1781 154.584 54.4933 153.947 54.1931 153.278C53.6341 152.032 53.7352 150.618 53.1479 149.413C52.7431 148.583 49.4969 148.145 48.6574 147.807C46.9689 147.128 45.386 146.716 43.5862 147.313C42.5659 147.651 41.4721 150.22 40.9538 151.002C39.5668 153.093 38.2119 155.418 37.1214 157.655C36.3046 159.331 35.0149 161.102 34.5277 162.879C33.8786 165.247 34.0001 167.757 33.4632 170.15Z" fill="#D93F0F" stroke="#D93F0F" stroke-width="8.09917" stroke-linecap="round" stroke-dasharray="16.2 16.2"/>
<rect x="117.072" y="2.42969" width="7.28926" height="29.8518" rx="3.64463" transform="rotate(17.1899 117.072 2.42969)" fill="#D93F0F"/>
<path d="M38.9604 31.2773C33.9541 34.242 32.6389 22.8507 22.8925 27.901C20.6438 29.0662 13.5322 42.9951 13.5322 46.2103C13.5322 49.722 11.4066 57.2607 12.6846 60.7041C15.2134 67.5179 17.5902 72.3381 22.8925 77.8331C26.8133 81.8964 36.8427 74.6364 41.8386 74.6364C45.931 74.6364 51.2622 83.4206 55.4887 83.4206C64.0937 83.4206 71.2757 76.8806 79.7799 76.0794C90.0558 75.1112 100.436 73.9149 110.798 73.9149C114.25 73.9149 117.305 74.6364 120.777 74.6364C129.312 74.6364 135.933 80.51 144.137 81.6908C151.897 82.8077 159.794 81.6076 166.183 77.0413C170.696 73.8154 175.809 80.4064 180.493 77.4083C182.701 75.995 185.598 75.2664 185.598 72.2377C185.598 69.767 185.16 58.6252 184.554 56.2389C183.578 52.3977 184.291 47.9836 184.167 44.054C184.085 41.4792 183.509 38.9635 183.509 36.3984C183.509 34.4197 181.854 32.3099 180.879 30.6266C177.755 25.2297 170.997 28.8277 166.337 30.2258C163.833 30.9769 161.731 32.791 159.221 32.791C147.238 32.791 137.492 26.556 125.843 29.7448C120.013 31.3408 114.434 33.8667 110.798 27.901C107.858 23.0769 101.407 22.2409 95.0184 22.8507C82.0378 24.0897 74.263 29.6074 61.4219 32.1557C57.2957 32.9745 42.3106 29.2933 38.9604 31.2773Z" fill="#D93F0F" stroke="#D93F0F" stroke-width="8.09917" stroke-linejoin="round" stroke-dasharray="16.2 16.2"/>
<path d="M22.7418 34.0815C23.8052 33.2508 24.935 32.8354 26.1313 32.8354C28.6568 32.8354 30.3017 34.2477 31.066 37.0723C31.1989 37.6039 31.4315 39.1658 31.7638 41.7577L31.9133 50.4308C32.1459 50.7299 32.3952 50.8794 32.661 50.8794C32.9269 50.5471 33.093 49.9656 33.1595 49.1348C33.2259 48.1379 33.2592 47.6395 33.2592 47.6395C33.6579 46.4432 34.2893 44.6654 35.1533 42.306C35.984 40.2457 37.3963 39.0328 39.3901 38.6673C40.819 38.6341 41.8824 39.2655 42.5802 40.5614C43.0787 41.4919 43.4941 43.0869 43.8264 45.3466C44.0922 47.141 44.1919 48.2542 44.1254 48.6862C43.8928 49.4173 43.9261 50.2148 44.2251 51.0788C44.6904 51.1785 44.9396 51.0456 44.9728 50.68C45.4048 43.4026 46.6011 38.119 48.5617 34.8292C49.1598 33.7991 49.8244 33.1179 50.5555 32.7856C51.0207 32.4865 51.7185 32.2871 52.649 32.1874C54.2773 32.0213 55.8059 32.636 57.2348 34.0317C58.3314 35.0951 58.8797 36.5904 58.8797 38.5178C58.8797 39.2488 58.6138 40.9602 58.0821 43.6518C57.5172 46.8419 56.6366 51.6105 55.4403 57.9575C54.3437 63.5734 52.5991 67.7271 50.2066 70.4188C49.3426 71.1166 48.1961 71.4655 46.7672 71.4655C45.1057 71.4655 43.5771 71.0668 42.1815 70.2692C41.0516 69.3388 40.304 68.0927 39.9384 66.5308C39.6394 65.3013 39.4732 63.7727 39.44 61.9451C39.3735 59.7519 39.2572 58.2565 39.0911 57.459C38.7588 57.1599 38.4763 57.027 38.2437 57.0602C38.144 57.5587 37.928 59.5525 37.5957 63.0417C37.3299 65.6669 36.9477 67.6108 36.4493 68.8736C35.6517 70.8009 34.1065 71.8477 31.8136 72.0138C28.1251 72.2797 25.3005 70.6846 23.3399 67.2287C22.1436 65.5672 21.1966 63.0583 20.4988 59.702C19.8341 56.3126 19.5185 52.6074 19.5517 48.5865C19.6182 40.5448 20.6815 35.7098 22.7418 34.0815Z" fill="white"/>
<path d="M90.4106 67.2785V67.3284C90.1115 68.9234 89.1312 69.9203 87.4697 70.3191C86.639 70.5185 85.775 70.6182 84.8778 70.6182C83.2495 70.6182 81.9203 70.236 80.8901 69.4717C80.1591 68.508 79.7271 67.8767 79.5942 67.5776C79.1622 66.7136 78.9462 65.6004 78.9462 64.238C77.617 64.1715 76.105 64.238 74.4102 64.4373C74.4767 64.7364 74.5432 65.185 74.6096 65.7832C74.6096 67.1456 74.2275 68.5579 73.4632 70.02C72.4995 71.3825 71.0872 72.0637 69.2263 72.0637C68.3291 72.0637 67.2159 71.8975 65.8867 71.5652L65.787 71.4655C62.9624 70.0699 61.5502 66.5973 61.5502 61.0479C61.5502 60.6823 61.5834 59.8183 61.6498 58.4559C61.9157 53.2388 62.3975 49.1514 63.0954 46.194C64.0923 42.0069 65.8535 38.2519 68.379 34.9289C70.3395 32.3702 73.1807 31.0908 76.9025 31.0908C80.8901 31.0908 83.8975 32.337 85.9245 34.8292C87.1208 36.2913 87.9682 38.0027 88.4666 39.9633C90.2943 46.9749 91.2081 53.1391 91.2081 58.4559C91.2081 61.5795 90.9423 64.5204 90.4106 67.2785ZM77.7997 54.2191C78.0323 51.5274 77.8662 47.3238 77.3013 41.6082C77.0687 41.3756 76.7197 41.4586 76.2545 41.8574C75.8225 44.682 75.5068 46.9749 75.3075 48.7361C74.9752 51.8265 74.8589 53.5877 74.9585 54.0197C75.1247 54.3852 75.4072 54.568 75.8059 54.568C75.9388 54.568 76.2711 54.5181 76.8028 54.4184C77.3677 54.2855 77.7 54.2191 77.7997 54.2191Z" fill="white"/>
<path d="M121.53 38.5676H121.58C121.68 39.0661 121.73 39.7141 121.73 40.5116C121.696 42.1731 121.298 43.4358 120.533 44.2998C120.234 44.6321 118.889 45.0309 116.496 45.4961C114.137 45.9281 112.924 46.2106 112.857 46.3435C112.791 46.709 113.173 50.1816 114.004 56.7612C114.17 58.0904 114.253 59.4196 114.253 60.7488C114.253 63.7727 113.854 66.265 113.057 68.2256C112.06 70.6846 110.598 71.8809 108.67 71.8145C105.547 71.7148 103.37 70.7345 102.14 68.8736C101.21 67.4779 100.728 65.2681 100.695 62.2442C100.695 62.51 100.761 60.7654 100.894 57.0104L101.144 50.6302C101.277 48.6364 101.493 46.9084 101.792 45.4463C101.592 45.5127 101.293 45.546 100.894 45.546C99.7645 45.546 98.6347 45.3632 97.5049 44.9977C95.9763 44.4992 94.9295 43.7681 94.3646 42.8045C93.5671 41.442 93.1683 40.1627 93.1683 38.9664C93.1683 36.9726 94.2649 35.4274 96.4581 34.3308C99.2827 32.9019 102.689 32.1874 106.676 32.1874C108.77 32.1874 110.963 32.3868 113.256 32.7856C114.353 33.1843 116.014 33.7991 118.241 34.6298C120.101 35.5935 121.198 36.9061 121.53 38.5676Z" fill="white"/>
<path d="M149.621 58.8547V58.9045C149.621 59.0707 149.621 59.3033 149.621 59.6023C149.654 59.9347 149.671 60.1673 149.671 60.3002C149.671 65.1518 147.826 68.4416 144.138 70.1696C142.078 71.1332 139.868 71.6151 137.508 71.6151C134.351 71.6151 131.776 70.7345 129.782 68.9733C125.595 65.2847 123.518 60.1008 123.552 53.4215C123.552 50.4973 123.901 47.1742 124.598 43.4525C125.13 40.5947 126.277 37.9529 128.038 35.5271C128.902 34.3308 130.148 33.3671 131.776 32.636C133.438 31.8717 135.215 31.4896 137.11 31.4896C139.303 31.4896 141.346 32.0711 143.241 33.2342C145.168 34.364 146.663 35.8926 147.727 37.8199C148.358 38.983 148.69 40.279 148.724 41.7079C148.757 43.0703 148.424 44.3164 147.727 45.4463C146.796 46.9749 145.6 47.8222 144.138 47.9884C141.812 48.221 139.751 47.1742 137.957 44.8481C137.924 44.7484 137.857 44.3497 137.758 43.6518C137.691 43.1202 137.442 42.8709 137.01 42.9042L136.511 43.8014C136.179 50.8462 136.013 54.4517 136.013 54.6178C136.013 55.5815 136.046 56.5286 136.113 57.459C136.179 58.3894 136.578 59.0042 137.309 59.3033C138.073 59.27 139.386 58.4227 141.247 56.7612C143.141 55.0997 144.437 54.2689 145.135 54.2689C145.666 54.2689 146.215 54.3852 146.78 54.6178C148.674 55.1827 149.621 56.595 149.621 58.8547Z" fill="white"/>
<path d="M154.038 35.2778H153.988C155.45 33.8157 157.295 33.0846 159.521 33.0846C161.382 33.0846 162.744 33.3339 163.608 33.8323C164.572 34.796 165.087 36.308 165.154 38.3682C164.954 39.9965 164.805 42.1731 164.705 44.898C165.104 46.3601 165.702 47.0912 166.499 47.0912C166.798 47.0912 167.264 46.9416 167.895 46.6426C168.261 46.4764 168.543 45.7952 168.742 44.5989C168.543 42.8709 168.41 40.495 168.344 37.471C168.477 35.7431 169.573 34.2477 171.633 32.9849C172.032 32.7523 173.012 32.6028 174.574 32.5363C175.737 32.5031 176.518 32.5363 176.917 32.636C178.412 33.0348 179.409 34.1646 179.908 36.0255C180.074 36.5904 180.257 37.1553 180.456 37.7202C180.755 38.8168 180.921 39.9301 180.954 41.0599C181.154 45.7121 181.254 49.2013 181.254 51.5274C181.254 56.4455 180.406 61.862 178.711 67.777C178.18 69.6046 176.718 70.7677 174.325 71.2662C172.796 71.5985 171.567 71.4489 170.636 70.8175C169.374 69.9868 168.643 68.6077 168.443 66.6804C168.377 66.1487 168.393 65.2016 168.493 63.8392C168.626 62.4768 168.676 61.5297 168.643 60.998C168.443 60.1673 167.912 59.7519 167.048 59.7519C166.217 59.7519 165.469 60.0676 164.805 60.6989C164.173 61.3303 163.874 62.1445 163.907 63.1414C164.074 63.806 164.306 64.9856 164.605 66.6804C164.771 67.8102 164.722 68.6742 164.456 69.2723C164.057 70.1696 163.409 70.8175 162.512 71.2163C161.914 71.4822 160.817 71.6151 159.222 71.6151C157.693 71.6151 156.431 71.0834 155.434 70.02C154.603 69.1228 153.905 67.6441 153.34 65.5838C152.676 63.2909 152.31 60.7488 152.244 57.9575C152.144 53.9366 152.094 50.4973 152.094 47.6395C152.094 41.2925 152.742 37.1719 154.038 35.2778Z" fill="white"/>
<path d="M44.9664 153.988C46.0298 153.157 47.1596 152.742 48.3559 152.742C50.8814 152.742 52.5263 154.154 53.2906 156.979C53.4235 157.51 53.6561 159.072 53.9884 161.664L54.1379 170.337C54.3706 170.636 54.6198 170.786 54.8856 170.786C55.1515 170.454 55.3176 169.872 55.3841 169.041C55.4505 168.044 55.4838 167.546 55.4838 167.546C55.8825 166.35 56.5139 164.572 57.3779 162.212C58.2086 160.152 59.6209 158.939 61.6147 158.574C63.0436 158.541 64.107 159.172 64.8048 160.468C65.3033 161.398 65.7187 162.993 66.051 165.253C66.3168 167.047 66.4165 168.161 66.35 168.593C66.1174 169.324 66.1507 170.121 66.4497 170.985C66.915 171.085 67.1642 170.952 67.1974 170.587C67.6294 163.309 68.8257 158.025 70.7863 154.736C71.3844 153.706 72.049 153.024 72.7801 152.692C73.2453 152.393 73.9431 152.194 74.8736 152.094C76.5019 151.928 78.0305 152.543 79.4594 153.938C80.556 155.002 81.1043 156.497 81.1043 158.424C81.1043 159.155 80.8384 160.867 80.3067 163.558C79.7418 166.748 78.8612 171.517 77.6649 177.864C76.5683 183.48 74.8238 187.634 72.4312 190.325C71.5672 191.023 70.4207 191.372 68.9918 191.372C67.3303 191.372 65.8018 190.973 64.4061 190.176C63.2763 189.245 62.5286 187.999 62.163 186.437C61.864 185.208 61.6978 183.679 61.6646 181.852C61.5981 179.658 61.4818 178.163 61.3157 177.365C60.9834 177.066 60.7009 176.933 60.4683 176.967C60.3686 177.465 60.1526 179.459 59.8203 182.948C59.5545 185.573 59.1723 187.517 58.6739 188.78C57.8763 190.707 56.3311 191.754 54.0382 191.92C50.3497 192.186 47.5251 190.591 45.5645 187.135C44.3683 185.474 43.4212 182.965 42.7234 179.609C42.0588 176.219 41.7431 172.514 41.7763 168.493C41.8428 160.451 42.9061 155.616 44.9664 153.988Z" fill="white"/>
<path d="M98.2299 158.723C98.2299 160.086 98.2631 161.747 98.3296 163.708C98.3961 165.668 98.4293 166.931 98.4293 167.496C98.4625 174.076 98.0139 179.957 97.0835 185.141C96.4853 188.498 94.9567 190.508 92.4977 191.173C91.7666 191.239 91.2682 191.272 91.0023 191.272C87.6461 191.272 85.752 189.727 85.32 186.637C84.5557 181.32 84.1901 176.518 84.2234 172.231C84.2566 167.712 84.6055 163.708 85.2701 160.219L86.6159 156.879C88.3439 154.387 90.803 153.141 93.9931 153.141C94.7241 153.141 95.3721 153.207 95.937 153.34C96.8675 153.772 97.4822 154.553 97.7813 155.683L98.2299 158.723Z" fill="white"/>
<path d="M129.058 158.474H129.108C129.208 158.973 129.258 159.621 129.258 160.418C129.225 162.08 128.826 163.342 128.061 164.206C127.762 164.539 126.417 164.937 124.024 165.403C121.665 165.835 120.452 166.117 120.385 166.25C120.319 166.616 120.701 170.088 121.532 176.668C121.698 177.997 121.781 179.326 121.781 180.655C121.781 183.679 121.382 186.171 120.585 188.132C119.588 190.591 118.126 191.787 116.198 191.721C113.075 191.621 110.898 190.641 109.669 188.78C108.738 187.384 108.256 185.175 108.223 182.151C108.223 182.416 108.289 180.672 108.422 176.917L108.672 170.537C108.805 168.543 109.021 166.815 109.32 165.353C109.12 165.419 108.821 165.452 108.422 165.452C107.293 165.452 106.163 165.27 105.033 164.904C103.504 164.406 102.458 163.675 101.893 162.711C101.095 161.349 100.696 160.069 100.696 158.873C100.696 156.879 101.793 155.334 103.986 154.237C106.811 152.808 110.217 152.094 114.204 152.094C116.298 152.094 118.491 152.293 120.784 152.692C121.881 153.091 123.542 153.706 125.769 154.536C127.629 155.5 128.726 156.813 129.058 158.474Z" fill="white"/>
<path d="M132.824 155.184H132.774C134.237 153.722 136.081 152.991 138.307 152.991C140.168 152.991 141.531 153.24 142.395 153.739C143.358 154.702 143.873 156.214 143.94 158.275C143.74 159.903 143.591 162.08 143.491 164.804C143.89 166.267 144.488 166.998 145.286 166.998C145.585 166.998 146.05 166.848 146.681 166.549C147.047 166.383 147.329 165.702 147.529 164.505C147.329 162.777 147.196 160.401 147.13 157.378C147.263 155.65 148.359 154.154 150.42 152.891C150.818 152.659 151.799 152.509 153.361 152.443C154.524 152.41 155.305 152.443 155.703 152.543C157.199 152.941 158.196 154.071 158.694 155.932C158.86 156.497 159.043 157.062 159.242 157.627C159.541 158.723 159.708 159.837 159.741 160.966C159.94 165.619 160.04 169.108 160.04 171.434C160.04 176.352 159.192 181.768 157.498 187.683C156.966 189.511 155.504 190.674 153.111 191.173C151.583 191.505 150.353 191.355 149.423 190.724C148.16 189.893 147.429 188.514 147.23 186.587C147.163 186.055 147.18 185.108 147.279 183.746C147.412 182.383 147.462 181.436 147.429 180.904C147.23 180.074 146.698 179.658 145.834 179.658C145.003 179.658 144.255 179.974 143.591 180.605C142.959 181.237 142.66 182.051 142.694 183.048C142.86 183.712 143.092 184.892 143.391 186.587C143.558 187.717 143.508 188.581 143.242 189.179C142.843 190.076 142.195 190.724 141.298 191.123C140.7 191.389 139.603 191.522 138.008 191.522C136.48 191.522 135.217 190.99 134.22 189.927C133.389 189.029 132.691 187.551 132.126 185.49C131.462 183.197 131.096 180.655 131.03 177.864C130.93 173.843 130.88 170.404 130.88 167.546C130.88 161.199 131.528 157.078 132.824 155.184Z" fill="white"/>
<rect x="85.8787" y="1.91504" width="7.28926" height="23.4876" rx="3.64463" transform="rotate(-15.2323 85.8787 1.91504)" fill="#D93F0F"/>
<path d="M28.362 99.362H28.4118C28.5115 99.8604 28.5614 100.508 28.5614 101.306C28.5281 102.967 28.1294 104.23 27.3651 105.094C27.066 105.426 25.7202 105.825 23.3276 106.29C20.9683 106.722 19.7554 107.005 19.6889 107.138C19.6224 107.503 20.0046 110.976 20.8353 117.556C21.0015 118.885 21.0846 120.214 21.0846 121.543C21.0846 124.567 20.6858 127.059 19.8883 129.02C18.8914 131.479 17.4292 132.675 15.5019 132.609C12.3783 132.509 10.2017 131.529 8.97216 129.668C8.04171 128.272 7.55987 126.062 7.52664 123.039C7.52664 123.304 7.5931 121.56 7.72603 117.805L7.97525 111.425C8.10817 109.431 8.32417 107.703 8.62324 106.241C8.42386 106.307 8.12479 106.34 7.72603 106.34C6.5962 106.34 5.46637 106.158 4.33654 105.792C2.80795 105.294 1.7612 104.563 1.19629 103.599C0.398763 102.236 0 100.957 0 99.7607C0 97.7669 1.0966 96.2217 3.28979 95.1251C6.11436 93.6962 9.52046 92.9818 13.5081 92.9818C15.6016 92.9818 17.7948 93.1812 20.0877 93.5799C21.1843 93.9787 22.8458 94.5934 25.0722 95.4242C26.9331 96.3879 28.0297 97.7005 28.362 99.362Z" fill="#D93F0F"/>
<path d="M58.4961 123.686L58.5459 123.736C57.682 126.428 56.1534 128.555 53.9602 130.117C51.8002 131.678 49.2913 132.459 46.4335 132.459C41.1499 132.459 37.046 130.465 34.1217 126.478C31.6295 123.088 30.3833 118.968 30.3833 114.116C30.3833 111.89 30.5827 109.829 30.9815 107.935C32.8091 99.2623 36.6805 94.3774 42.5954 93.2808C43.1271 93.1812 43.692 93.1313 44.2902 93.1313C46.9486 93.1313 49.5239 94.0119 52.0162 95.7731C54.5417 97.5343 56.2364 99.6777 57.1004 102.203C58.9613 107.686 59.8918 111.956 59.8918 115.013C59.8918 117.605 59.4099 120.496 58.4462 123.686H58.4961ZM46.1345 120.098V120.048C47.0981 119.882 47.58 118.037 47.58 114.515C47.58 112.488 47.3972 110.627 47.0317 108.932C46.6661 107.204 46.2674 106.307 45.8354 106.241C45.1043 106.041 44.4397 106.839 43.8416 108.633C43.2434 110.428 42.9444 112.405 42.9444 114.565C42.9444 118.586 44.0077 120.43 46.1345 120.098Z" fill="#D93F0F"/>
<path d="M88.2213 102.054C88.321 102.619 88.3708 103.183 88.3708 103.748C88.3708 105.543 88.0053 106.938 87.2742 107.935C86.1444 109.497 84.4497 110.228 82.19 110.129C80.1298 110.029 78.7507 109.065 78.0529 107.238V105.842C78.0529 105.41 77.8867 105.061 77.5544 104.795L77.2553 104.845C75.1286 110.228 74.0652 114.748 74.0652 118.403C74.0652 119.632 74.0486 120.064 74.0154 119.699C74.0486 120.164 74.3311 120.663 74.8628 121.194C76.3249 121.061 77.2387 120.613 77.6043 119.848C77.7704 119.383 77.5876 118.951 77.056 118.552C76.5243 118.486 76.192 118.386 76.0591 118.253C75.6935 118.087 75.4941 117.821 75.4609 117.456C75.3944 116.625 75.6437 115.728 76.2086 114.764L77.4547 113.767C77.787 113.767 78.651 113.717 80.0467 113.618C81.4756 113.485 82.4226 113.418 82.8879 113.418C84.8152 113.418 86.2607 113.9 87.2244 114.864C87.8558 115.794 88.1715 117.04 88.1715 118.602C88.1715 120.43 87.8059 122.307 87.0749 124.235C86.2773 126.362 85.1475 128.156 83.6854 129.618C82.0239 131.28 80.1796 132.243 78.1526 132.509C77.1224 132.642 76.2252 132.708 75.4609 132.708C72.5367 132.708 69.9281 131.761 67.6352 129.867C66.0401 128.538 64.794 126.544 63.8968 123.886C62.9996 121.227 62.551 118.22 62.551 114.864C62.551 110.311 63.2987 106.124 64.794 102.303C66.2894 98.4814 68.2998 95.7399 70.8253 94.0784C72.5533 93.1812 74.4972 92.7325 76.6572 92.7325C78.5513 92.7325 80.2959 93.1147 81.891 93.879C85.7789 96.5374 87.8558 99.2623 88.1216 102.054H88.2213Z" fill="#D93F0F"/>
<path d="M113.375 108.234C113.508 108.733 113.558 109.248 113.525 109.78C113.525 111.541 112.81 113.02 111.382 114.216C110.086 115.346 108.69 115.828 107.195 115.661C106.929 115.562 106.43 115.545 105.699 115.612C105.766 116.01 105.649 117.074 105.35 118.802C105.35 119.599 105.699 120.197 106.397 120.596C107.759 120.231 108.873 120.231 109.737 120.596C111.099 121.128 111.847 122.025 111.98 123.288C112.146 124.717 111.73 126.179 110.734 127.674C109.737 129.136 108.358 130.366 106.596 131.363C105.035 132.26 103.19 132.708 101.064 132.708C99.2027 132.708 97.5246 132.36 96.0292 131.662C95.3978 131.363 94.4508 130.432 93.188 128.87C91.8256 126.611 91.1277 121.842 91.0945 114.565C91.0613 110.378 91.4102 105.593 92.1413 100.209C92.5732 97.0857 93.4705 95.0587 94.8329 94.1282L103.157 93.2808C104.586 92.9818 105.948 92.8322 107.244 92.8322C109.836 92.8322 111.365 93.4802 111.83 94.7762C112.03 95.3079 112.129 95.906 112.129 96.5706C112.129 97.9995 111.598 99.1626 110.534 100.06C109.471 100.957 107.992 101.406 106.098 101.406C105.633 101.406 105.267 101.389 105.001 101.356C104.769 101.854 104.636 102.652 104.603 103.748C104.536 105.144 104.486 105.942 104.453 106.141C104.553 106.606 104.902 106.905 105.5 107.038C106.463 106.274 107.676 105.892 109.139 105.892C110.833 105.892 112.246 106.673 113.375 108.234Z" fill="#D93F0F"/>
<path d="M143.875 99.362H143.925C144.025 99.8604 144.075 100.508 144.075 101.306C144.041 102.967 143.643 104.23 142.878 105.094C142.579 105.426 141.233 105.825 138.841 106.29C136.481 106.722 135.269 107.005 135.202 107.138C135.136 107.503 135.518 110.976 136.348 117.556C136.515 118.885 136.598 120.214 136.598 121.543C136.598 124.567 136.199 127.059 135.401 129.02C134.405 131.479 132.942 132.675 131.015 132.609C127.891 132.509 125.715 131.529 124.485 129.668C123.555 128.272 123.073 126.062 123.04 123.039C123.04 123.304 123.106 121.56 123.239 117.805L123.488 111.425C123.621 109.431 123.837 107.703 124.136 106.241C123.937 106.307 123.638 106.34 123.239 106.34C122.109 106.34 120.98 106.158 119.85 105.792C118.321 105.294 117.274 104.563 116.709 103.599C115.912 102.236 115.513 100.957 115.513 99.7607C115.513 97.7669 116.61 96.2217 118.803 95.1251C121.628 93.6962 125.034 92.9818 129.021 92.9818C131.115 92.9818 133.308 93.1812 135.601 93.5799C136.697 93.9787 138.359 94.5934 140.585 95.4242C142.446 96.3879 143.543 97.7005 143.875 99.362Z" fill="#D93F0F"/>
<path d="M147.641 96.0722H147.591C149.053 94.6101 150.898 93.879 153.124 93.879C154.985 93.879 156.347 94.1282 157.211 94.6267C158.175 95.5903 158.69 97.1023 158.757 99.1626C158.557 100.791 158.408 102.967 158.308 105.692C158.707 107.154 159.305 107.886 160.102 107.886C160.401 107.886 160.867 107.736 161.498 107.437C161.864 107.271 162.146 106.59 162.345 105.393C162.146 103.665 162.013 101.289 161.947 98.2654C162.08 96.5374 163.176 95.042 165.236 93.7793C165.635 93.5467 166.616 93.3971 168.177 93.3307C169.34 93.2975 170.121 93.3307 170.52 93.4304C172.015 93.8291 173.012 94.959 173.511 96.8199C173.677 97.3848 173.86 97.9497 174.059 98.5146C174.358 99.6112 174.524 100.724 174.558 101.854C174.757 106.506 174.857 109.996 174.857 112.322C174.857 117.24 174.009 122.656 172.315 128.571C171.783 130.399 170.321 131.562 167.928 132.061C166.4 132.393 165.17 132.243 164.24 131.612C162.977 130.781 162.246 129.402 162.046 127.475C161.98 126.943 161.997 125.996 162.096 124.634C162.229 123.271 162.279 122.324 162.246 121.792C162.046 120.962 161.515 120.546 160.651 120.546C159.82 120.546 159.072 120.862 158.408 121.493C157.776 122.125 157.477 122.939 157.51 123.936C157.677 124.6 157.909 125.78 158.208 127.475C158.374 128.605 158.325 129.469 158.059 130.067C157.66 130.964 157.012 131.612 156.115 132.011C155.517 132.277 154.42 132.409 152.825 132.409C151.296 132.409 150.034 131.878 149.037 130.814C148.206 129.917 147.508 128.438 146.943 126.378C146.279 124.085 145.913 121.543 145.847 118.752C145.747 114.731 145.697 111.292 145.697 108.434C145.697 102.087 146.345 97.9663 147.641 96.0722Z" fill="#D93F0F"/>
<path d="M199.7 108.234C199.833 108.733 199.883 109.248 199.849 109.78C199.849 111.541 199.135 113.02 197.706 114.216C196.41 115.346 195.014 115.828 193.519 115.661C193.253 115.562 192.755 115.545 192.024 115.612C192.09 116.01 191.974 117.074 191.675 118.802C191.675 119.599 192.024 120.197 192.722 120.596C194.084 120.231 195.197 120.231 196.061 120.596C197.424 121.128 198.171 122.025 198.304 123.288C198.47 124.717 198.055 126.179 197.058 127.674C196.061 129.136 194.682 130.366 192.921 131.363C191.359 132.26 189.515 132.708 187.388 132.708C185.527 132.708 183.849 132.36 182.354 131.662C181.722 131.363 180.775 130.432 179.513 128.87C178.15 126.611 177.452 121.842 177.419 114.565C177.386 110.378 177.735 105.593 178.466 100.209C178.898 97.0857 179.795 95.0587 181.157 94.1282L189.482 93.2808C190.911 92.9818 192.273 92.8322 193.569 92.8322C196.161 92.8322 197.689 93.4802 198.155 94.7762C198.354 95.3079 198.454 95.906 198.454 96.5706C198.454 97.9995 197.922 99.1626 196.859 100.06C195.795 100.957 194.317 101.406 192.423 101.406C191.957 101.406 191.592 101.389 191.326 101.356C191.093 101.854 190.96 102.652 190.927 103.748C190.861 105.144 190.811 105.942 190.778 106.141C190.877 106.606 191.226 106.905 191.824 107.038C192.788 106.274 194.001 105.892 195.463 105.892C197.158 105.892 198.57 106.673 199.7 108.234Z" fill="#D93F0F"/>
<path d="M231.047 127.176H230.997C230.532 128.173 229.751 129.186 228.654 130.216C227.226 131.512 225.78 132.243 224.318 132.409C221.493 132.708 218.602 129.834 215.645 123.786C215.745 124.65 215.794 125.398 215.794 126.029C215.794 128.09 215.296 129.718 214.299 130.914C212.77 131.977 211.242 132.509 209.713 132.509C209.049 132.509 208.451 132.443 207.919 132.31C205.958 131.811 204.679 131.18 204.081 130.416C203.283 129.419 202.884 127.624 202.884 125.032V123.039C202.785 122.939 202.818 119.965 202.984 114.116C203.184 107.503 203.566 102.469 204.131 99.0131C204.563 96.5208 206.324 94.8094 209.414 93.879C210.876 93.447 213.751 93.015 218.037 92.583C223.122 92.7492 226.611 94.4439 228.505 97.6672C229.934 100.891 230.632 103.848 230.598 106.54C230.565 109.298 229.818 111.607 228.355 113.468C228.123 113.767 227.176 114.648 225.514 116.11C229.269 120.164 231.147 123.554 231.147 126.278C231.147 126.478 231.114 126.777 231.047 127.176ZM216.791 103.948H216.741C216.542 103.881 216.376 103.848 216.243 103.848C216.11 103.848 215.595 104.081 214.698 104.546C214.565 104.679 214.515 105.526 214.548 107.088C214.581 108.916 214.598 110.644 214.598 112.272C215.861 111.84 216.924 111.225 217.788 110.428C218.685 109.597 219.134 108.733 219.134 107.836C219.134 106.606 218.353 105.31 216.791 103.948Z" fill="#D93F0F"/>
<path d="M180.331 153.961C179.725 154.363 179.472 154.782 178.964 155.249C176.249 155.913 174.232 156.676 172.462 158.968C171.518 160.192 170.436 161.52 169.344 162.593C168.305 163.615 168.633 166.289 168.199 167.665C167.535 169.774 166.547 171.681 165.958 173.827C165.358 176.013 165.19 178.368 165.418 180.637C165.81 184.535 166.412 187.637 168.836 190.829C170.321 192.784 171.802 194.564 172.917 196.765C174.031 198.962 177.007 199.508 178.447 201.483C179.653 203.136 181.092 201.223 182.895 202.122C183.897 202.622 184.766 203.026 185.893 202.975C189.356 202.819 192.274 206.058 195.464 204.888C196.059 204.67 197.51 204.306 198.045 203.858C200.695 201.634 203.757 200.018 206.638 198.107C209.449 196.241 211.686 193.829 213.313 190.828C215.26 187.234 215.82 184.162 216.43 180.015C216.655 178.483 216.231 176.947 215.746 175.479C215.117 173.572 215.878 170.958 214.579 169.396C213.571 168.183 212.43 167.195 211.707 165.749C211.225 164.786 210.706 163.838 210.078 162.963C209.153 161.674 208.079 158.852 206.634 158.27C205.533 157.826 203.494 156.751 203.125 155.242C202.846 154.102 201.273 155.323 200.901 154.213C200.504 153.029 199.989 151.932 199.358 150.862C199.171 150.546 199.056 149.937 198.777 149.706C197.683 148.804 194.142 147.281 192.923 147.49C191.457 147.741 190.785 150.845 189.301 150.536C188.994 150.473 188.34 149.912 188.049 150.077C186.736 150.823 185.609 151.432 184.411 152.398C183.828 152.867 183.179 153.22 182.461 153.396C181.817 153.553 180.894 153.587 180.331 153.961Z" fill="white" stroke="white" stroke-width="5.37968" stroke-linecap="round" stroke-dasharray="10.76 10.76"/>
<path d="M188.439 153.104C188.802 150.517 191.194 148.713 193.782 149.076L196.125 149.406C198.713 149.769 200.516 152.161 200.152 154.749L200.069 155.339C204.702 157.151 208.821 160.399 211.691 164.921C218.867 176.228 215.517 191.212 204.21 198.388C192.903 205.564 177.919 202.214 170.743 190.907C163.567 179.6 166.916 164.616 178.224 157.44C181.39 155.43 184.845 154.246 188.336 153.831L188.439 153.104Z" fill="black"/>
<path d="M198.812 167.864L195.465 169.213" stroke="white" stroke-width="2.15187" stroke-linecap="round"/>
<path d="M185.647 166.159L187.981 168.911" stroke="white" stroke-width="2.15187" stroke-linecap="round"/>
</svg>
