<svg width="40" height="40" viewBox="0 0 40 40" fill="none" xmlns="http://www.w3.org/2000/svg">
<path fill-rule="evenodd" clip-rule="evenodd" d="M25.4407 15.8873C25.8312 15.4968 25.8312 14.8636 25.4407 14.4731C25.0502 14.0825 24.417 14.0825 24.0265 14.4731L20 18.4996L15.9735 14.4731C15.583 14.0825 14.9498 14.0825 14.5593 14.4731C14.1687 14.8636 14.1687 15.4968 14.5593 15.8873L18.5858 19.9138L14.3871 24.1124C13.9966 24.5029 13.9966 25.1361 14.3871 25.5266C14.7777 25.9172 15.4108 25.9172 15.8013 25.5266L20 21.328L24.1986 25.5266C24.5891 25.9172 25.2223 25.9172 25.6128 25.5266C26.0033 25.1361 26.0033 24.5029 25.6128 24.1124L21.4142 19.9138L25.4407 15.8873Z" fill="#D9D9D9"/>
</svg>
