<svg width="40" height="40" fill="currentColor" class="transition-all duration-200 hover:fill-main" viewBox="0 0 40 40" xmlns="http://www.w3.org/2000/svg">
<style>
  svg:hover {
    fill: var(--color-main) !important;
  }
</style>
<path d="M17.8964 11.0694C18.3408 10.6028 18.7651 10.1033 19.2137 9.64438C19.6471 9.20105 20.9416 9.14997 21.3699 9.59818C21.6443 9.88541 21.892 10.1926 22.0452 10.5424C22.1407 10.7604 22.2897 10.9078 22.4579 11.0382C22.5919 11.142 22.6598 11.3025 22.7613 11.4473C22.9211 11.6754 23.1525 11.797 23.3544 11.9535C23.5755 12.125 23.7817 12.3243 23.972 12.5464C24.1716 12.7793 24.4144 12.9015 24.628 13.1046C24.9936 13.4525 25.3591 13.8096 25.7103 14.1795C26.0169 14.5024 26.3563 14.6794 26.6942 14.9423C27.0592 15.2261 27.3559 15.5753 27.6945 15.8992C28.2061 16.3884 28.7337 16.9508 29.1922 17.5149C29.4504 17.8325 29.6862 18.1688 29.9794 18.4372C30.2716 18.7047 30.5728 18.9216 30.8539 19.2069C30.9906 19.3455 30.7128 19.3733 30.608 19.3733C30.2519 19.3733 29.9335 19.4884 29.5803 19.4981C28.6304 19.5243 27.6798 19.5606 26.727 19.5606C23.3732 19.5606 20.0206 19.5351 16.6692 19.4981C16.2076 19.4931 15.7449 19.4423 15.2808 19.4357C13.755 19.4142 12.2282 19.3733 10.7002 19.3733C10.2887 19.3733 9.85936 19.415 9.44844 19.3733C9.38798 19.3672 9.55733 19.3012 9.60149 19.2485C9.66755 19.1696 9.74452 19.1213 9.80921 19.0474C10.0956 18.7204 10.5006 18.5656 10.7767 18.2153C10.9346 18.0149 11.0015 17.8208 11.1812 17.6536C11.5027 17.3545 11.8861 17.2026 12.2061 16.8735C12.5526 16.5171 12.8652 16.0878 13.2201 15.7501C13.7444 15.2512 14.2606 14.8537 14.8271 14.443C15.7394 13.7816 16.3293 12.6201 17.1913 11.8911C17.4529 11.6699 17.654 11.3239 17.8964 11.0694Z" stroke="white" stroke-width="1.17511" stroke-linecap="round"/>
<path d="M9.43564 19.3977C9.57152 20.3747 9.16972 24.5409 9.08508 25.5014C9.01281 26.3214 9.02472 27.1685 9.02472 27.9924C9.02472 28.3213 8.97482 28.7135 9.01681 29.0581C9.03568 29.213 9.05211 29.3709 9.04958 29.5269C9.04232 29.975 9.0741 30.8514 9.0741 31.0284C9.0741 31.0563 9.11789 31.2571 9.13446 31.267C9.41922 31.4364 10.1373 31.3653 10.4294 31.378C11.6456 31.4308 12.8622 31.4695 14.0782 31.5278C15.5944 31.6004 27.5389 31.4629 30.4244 31.452C30.6882 31.451 30.9051 31.2474 30.9176 30.9838C30.9804 29.6508 31 27.4561 31 26.3724C31 24.5994 30.9229 21.1123 30.8911 19.3433" stroke="white" stroke-width="1.17511" stroke-linecap="round"/>
<path d="M16.9499 11.9245C16.5869 11.5524 16.2275 11.1709 15.856 10.7994C15.6424 10.5858 15.3984 10.3963 15.2136 10.1587C15.0936 10.0044 14.9583 9.86451 14.8403 9.70726C14.699 9.51887 14.5038 9.32978 14.3872 9.12561C14.2858 8.94815 14.1196 8.85114 13.9809 8.70544C13.9419 8.66451 13.8499 8.48842 13.7795 8.53876C13.6107 8.65929 13.4428 8.72782 13.2621 8.8235C13.1538 8.8808 13.0714 9.0726 12.9738 9.15687C12.8386 9.27364 12.7065 9.39797 12.5745 9.51801C12.3457 9.72598 12.1274 9.92156 11.9182 10.1431C11.8405 10.2253 11.7386 10.2894 11.6682 10.3775C11.5137 10.5706 11.4343 10.5936 11.6109 10.8393C11.8274 11.1406 12.0844 11.3966 12.3089 11.6901C12.4583 11.8854 12.539 12.1292 12.6839 12.3308C12.791 12.4798 12.8829 12.6401 12.9964 12.7839C13.1124 12.9309 13.2576 13.0708 13.3506 13.2336C13.4601 13.4253 13.584 13.6466 13.7378 13.8066C13.8199 13.892 13.9985 14.128 14.0121 14.2372C14.0259 14.3477 14.3349 14.633 14.4184 14.6747" stroke="white" stroke-width="1.17511" stroke-linecap="round"/>
</svg>
