<svg width="41" height="40" viewBox="0 0 41 40" fill="none" xmlns="http://www.w3.org/2000/svg">
<path d="M27.4492 12.0923L23.1452 8.2663C23.1452 8.26628 23.1451 8.26626 23.1451 8.26624C22.59 7.77266 21.873 7.5 21.1302 7.5C20.3874 7.5 19.6704 7.77267 19.1153 8.26626C19.1153 8.26627 19.1153 8.26629 19.1152 8.2663L8.5619 17.6485L8.55573 17.6539L8.54975 17.6596C8.21748 17.9753 8.02091 18.4077 8.00157 18.8656C7.98224 19.3235 8.14164 19.7709 8.44611 20.1135C8.75059 20.456 9.17629 20.6668 9.63328 20.7013C10.0347 20.7315 10.4327 20.6237 10.7624 20.3985L11.662 29.3989L11.662 29.3989C11.7368 30.1471 12.087 30.8409 12.6445 31.3454C13.2021 31.85 13.9272 32.1294 14.6791 32.1295H27.581C27.5811 32.1295 27.5812 32.1295 27.5813 32.1295C28.3334 32.1298 29.0588 31.8505 29.6166 31.3459C30.1744 30.8413 30.5248 30.1474 30.5997 29.3989C30.5997 29.3989 30.5997 29.3989 30.5997 29.3989L31.5003 20.3992C31.8298 20.6239 32.2274 20.7315 32.6284 20.7013C33.0854 20.6668 33.5111 20.456 33.8156 20.1135C34.12 19.7709 34.2794 19.3235 34.2601 18.8656C34.2408 18.4077 34.0442 17.9753 33.7119 17.6596L33.706 17.654L33.6998 17.6485L30.5697 14.8652L31.1019 11.6607C31.1019 11.6607 31.1019 11.6606 31.1019 11.6606C31.1399 11.4318 31.1325 11.1978 31.0801 10.9719C31.0277 10.7459 30.9313 10.5325 30.7964 10.3439C30.6615 10.1552 30.4907 9.99491 30.2939 9.87221C30.0971 9.74951 29.878 9.66678 29.6492 9.62874C29.4204 9.59071 29.1864 9.59811 28.9604 9.65052C28.7345 9.70294 28.5211 9.79935 28.3324 9.93424C28.1437 10.0691 27.9834 10.2399 27.8607 10.4367C27.738 10.6335 27.6553 10.8526 27.6173 11.0814L27.4492 12.0923Z" stroke="#979797"/>
</svg>
