<svg width="41" height="41" viewBox="0 0 41 41" fill="none" xmlns="http://www.w3.org/2000/svg">
<g clip-path="url(#clip0_154_2095)">
<path d="M35.5 20.5C35.5 24.4782 33.9196 28.2936 31.1066 31.1066C28.2936 33.9196 24.4782 35.5 20.5 35.5C16.5218 35.5 12.7064 33.9196 9.8934 31.1066C7.08035 28.2936 5.5 24.4782 5.5 20.5C5.5 16.5218 7.08035 12.7064 9.8934 9.8934C12.7064 7.08035 16.5218 5.5 20.5 5.5C24.4782 5.5 28.2936 7.08035 31.1066 9.8934C33.9196 12.7064 35.5 16.5218 35.5 20.5ZM18.2312 15.0494C18.0911 14.9496 17.9261 14.8903 17.7545 14.878C17.5828 14.8657 17.4111 14.9009 17.2581 14.9797C17.1052 15.0585 16.9768 15.1779 16.8872 15.3248C16.7976 15.4717 16.7501 15.6404 16.75 15.8125V25.1875C16.7501 25.3596 16.7976 25.5283 16.8872 25.6752C16.9768 25.8221 17.1052 25.9415 17.2581 26.0203C17.4111 26.0991 17.5828 26.1343 17.7545 26.122C17.9261 26.1097 18.0911 26.0504 18.2312 25.9506L23.3125 22.3225V25.1875C23.3125 25.4361 23.4113 25.6746 23.5871 25.8504C23.7629 26.0262 24.0014 26.125 24.25 26.125C24.4986 26.125 24.7371 26.0262 24.9129 25.8504C25.0887 25.6746 25.1875 25.4361 25.1875 25.1875V15.8125C25.1875 15.5639 25.0887 15.3254 24.9129 15.1496C24.7371 14.9738 24.4986 14.875 24.25 14.875C24.0014 14.875 23.7629 14.9738 23.5871 15.1496C23.4113 15.3254 23.3125 15.5639 23.3125 15.8125V18.6775L18.2312 15.0494Z" fill="currentColor"/>
</g>
<defs>
<clipPath id="clip0_154_2095">
<rect width="40" height="40" fill="white" transform="translate(0.5 0.5)"/>
</clipPath>
</defs>
</svg>
