<svg width="41" height="41" viewBox="0 0 41 41" fill="none" xmlns="http://www.w3.org/2000/svg">
<path d="M28.2004 9.32227C31.3614 9.32227 34.3625 10.8324 36.4534 12.9404C38.5053 15.0092 39.6545 17.6273 39.6545 20.7764C39.6545 23.5328 38.2138 25.8251 36.9211 28.2021C34.8193 30.668 31.6929 32.2305 28.2004 32.2305C24.8155 32.2305 21.6992 30.8468 20.0842 28.2295L20.0579 28.1865L20.0237 28.1494L19.675 27.7559C17.9696 25.7768 16.7541 23.5264 16.7463 20.8027C17.0979 17.42 18.7557 14.2543 21.4358 12.1621C23.8952 10.6834 25.6318 9.32227 28.2004 9.32227Z" fill="#D93F0F" stroke="white" stroke-width="1.09091"/>
<path d="M24.3007 16.9378C24.2758 16.769 24.2586 16.6049 24.2492 16.4392C24.243 16.3303 24.3864 16.2649 24.4744 16.3293C25.0513 16.752 26.3192 17.4576 26.6297 17.7203C27.0522 18.0778 27.6316 18.4219 28.153 18.5772C28.7503 18.7551 29.0551 19.1569 29.5723 19.4923C30.0243 19.7855 30.4146 20.1422 30.8506 20.4499C30.9006 20.4853 31.1368 20.5923 31.0956 20.6437C31.0731 20.6718 31.0379 20.6557 31.0154 20.6838C30.9061 20.8205 30.6763 20.8324 30.5433 20.9533C30.255 21.2154 29.8971 21.5345 29.5522 21.7261C29.2281 21.9061 28.9508 22.1749 28.6146 22.343C28.0492 22.6257 27.5754 23.0311 27.02 23.3363C26.5125 23.6152 26.0236 23.925 25.4922 24.1603C25.2923 24.2488 25.1297 24.2862 24.9621 24.4298C24.8026 24.5665 24.6434 24.7089 24.4833 24.853C24.4165 24.913 24.2004 25.2448 24.2004 25.1135V24.6124C24.2004 23.3098 24.2286 22.0039 24.2828 20.7016C24.3178 19.8638 24.3207 19.027 24.3207 18.1872C24.3207 17.7765 24.3605 17.3445 24.3007 16.9378Z" stroke="white" stroke-width="1.09091" stroke-linecap="round"/>
<path d="M31.2004 16.7764V24.7764" stroke="white" stroke-linecap="round"/>
</svg>
