<svg width="45" height="45" fill="currentColor" class="transition-all duration-200 hover:fill-main" viewBox="0 0 40 40" fill="" xmlns="http://www.w3.org/2000/svg">
<path d="M28 8.5459C31.161 8.5459 34.162 10.0561 36.2529 12.1641C38.3048 14.2328 39.4541 16.8509 39.4541 20C39.4541 22.7565 38.0134 25.0487 36.7207 27.4258C34.6189 29.8916 31.4925 31.4541 28 31.4541C24.615 31.4541 21.4987 30.0705 19.8838 27.4531L19.8574 27.4102L19.8232 27.373L19.4746 26.9795C17.7691 25.0004 16.5537 22.7501 16.5459 20.0264C16.8975 16.6436 18.5553 13.478 21.2354 11.3857C23.6947 9.90705 25.4313 8.5459 28 8.5459Z" stroke="white" stroke-width="1.09091"/>
<path d="M24.1002 16.1614C24.0754 15.9926 24.0582 15.8286 24.0487 15.6628C24.0425 15.554 24.186 15.4885 24.2739 15.553C24.8509 15.9756 26.1188 16.6812 26.4293 16.9439C26.8517 17.3014 27.4311 17.6455 27.9526 17.8008C28.5499 17.9787 28.8547 18.3805 29.3718 18.7159C29.8238 19.0091 30.2142 19.3658 30.6502 19.6736C30.7002 19.7089 30.9363 19.8159 30.8952 19.8673C30.8727 19.8954 30.8375 19.8793 30.815 19.9074C30.7057 20.0441 30.4758 20.056 30.3428 20.1769C30.0545 20.439 29.6966 20.7581 29.3518 20.9497C29.0277 21.1298 28.7503 21.3985 28.4141 21.5666C27.8487 21.8493 27.3749 22.2547 26.8195 22.5599C26.3121 22.8388 25.8232 23.1486 25.2917 23.384C25.0919 23.4725 24.9293 23.5098 24.7617 23.6534C24.6022 23.7902 24.443 23.9325 24.2828 24.0766C24.2161 24.1367 24 24.4684 24 24.3372V23.8361C24 22.5334 24.0281 21.2275 24.0824 19.9252C24.1173 19.0874 24.1203 18.2507 24.1203 17.4108C24.1203 17.0002 24.16 16.5681 24.1002 16.1614Z" stroke="white" stroke-width="1.09091" stroke-linecap="round"/>
<path d="M31 16V24" stroke="white" stroke-linecap="round"/>
</svg>
