<svg width="33" height="32" viewBox="0 0 33 32" fill="none" xmlns="http://www.w3.org/2000/svg">
<rect x="0.5" width="32" height="32" rx="16" fill="#D9D9D9"/>
<path d="M17.9894 21.3612C17.9894 21.6558 17.902 21.9437 17.7384 22.1886C17.5747 22.4336 17.3421 22.6245 17.07 22.7372C16.7978 22.8499 16.4984 22.8794 16.2095 22.8219C15.9205 22.7645 15.6552 22.6226 15.4469 22.4143C15.2386 22.2061 15.0967 21.9407 15.0393 21.6518C14.9818 21.3629 15.0113 21.0634 15.124 20.7913C15.2367 20.5191 15.4276 20.2865 15.6726 20.1228C15.9175 19.9592 16.2054 19.8718 16.5 19.8718C16.895 19.8718 17.2738 20.0288 17.5532 20.3081C17.8325 20.5874 17.9894 20.9662 17.9894 21.3612ZM16.5 18.3825C16.737 18.3825 16.9643 18.2883 17.1319 18.1207C17.2995 17.9532 17.3936 17.7259 17.3936 17.4889L18.1936 10.0421C18.1936 9.80505 18.0995 9.57776 17.9319 9.41017C17.7643 9.24259 16.737 9.14844 16.5 9.14844C16.263 9.14844 15.2357 9.24259 15.0681 9.41017C14.9005 9.57776 14.8064 9.80505 14.8064 10.0421L15.6064 17.4889C15.6064 17.7259 15.7005 17.9532 15.8681 18.1207C16.0357 18.2883 16.263 18.3825 16.5 18.3825Z" fill="#D93F0F"/>
</svg>
