<svg width="18" height="18" viewBox="0 0 18 18" fill="none" xmlns="http://www.w3.org/2000/svg">
<mask id="mask0_194_739" style="mask-type:luminance" maskUnits="userSpaceOnUse" x="2" y="2" width="14" height="14">
<path d="M9 15C9.78808 15.001 10.5686 14.8463 11.2967 14.5447C12.0248 14.2431 12.6861 13.8006 13.2426 13.2426C13.8006 12.6861 14.2431 12.0248 14.5447 11.2967C14.8463 10.5686 15.001 9.78808 15 9C15.001 8.21192 14.8463 7.43142 14.5447 6.70333C14.2431 5.97524 13.8006 5.31393 13.2426 4.7574C12.6861 4.19941 12.0248 3.7569 11.2967 3.45531C10.5686 3.15372 9.78808 2.99898 9 3.00001C8.21192 2.999 7.43142 3.15374 6.70333 3.45533C5.97524 3.75693 5.31393 4.19943 4.7574 4.7574C4.19943 5.31393 3.75693 5.97524 3.45533 6.70333C3.15374 7.43142 2.999 8.21192 3.00001 9C2.99898 9.78808 3.15372 10.5686 3.45531 11.2967C3.7569 12.0248 4.19941 12.6861 4.7574 13.2426C5.31393 13.8006 5.97524 14.2431 6.70333 14.5447C7.43142 14.8463 8.21192 15.001 9 15Z" fill="white" stroke="white" stroke-linejoin="round"/>
<path d="M6.6001 9.00019L8.4001 10.8002L12.0001 7.2002" stroke="black" stroke-linecap="round" stroke-linejoin="round"/>
</mask>
<g mask="url(#mask0_194_739)">
<path d="M1.7998 1.7998H16.1998V16.1998H1.7998V1.7998Z" fill="#D93F0F"/>
</g>
</svg>
