<svg width="40" height="40" viewBox="0 0 40 40" fill="none" xmlns="http://www.w3.org/2000/svg">
<path d="M16.6187 8.5C17.9533 8.5 19.2338 9.14003 20.1304 10.0439C21.002 10.9228 21.4888 12.0299 21.4888 13.3701C21.4888 14.5145 20.8974 15.4667 20.3101 16.5449C19.4162 17.5832 18.0948 18.2402 16.6187 18.2402C15.1669 18.2402 13.8686 17.6475 13.2046 16.5713L13.1802 16.5322L13.1489 16.4971C12.3294 15.596 11.7556 14.5991 11.7485 13.3926C11.9024 11.9514 12.6098 10.6082 13.7437 9.7207C14.8674 9.04363 15.5653 8.50002 16.6187 8.5Z" stroke="white"/>
<path d="M27.2932 13.9365C27.873 13.9367 28.443 14.2168 28.8469 14.624C29.2314 15.0116 29.4446 15.4951 29.4446 16.0889C29.4444 16.5668 29.2045 16.9652 28.9094 17.5059C28.5144 17.956 27.9378 18.2401 27.2932 18.2402C26.6387 18.2402 26.0924 17.9736 25.8225 17.5361L25.7981 17.4971L25.7668 17.4629L25.6292 17.3027C25.3298 16.9341 25.1477 16.5498 25.1418 16.1104C25.2143 15.4708 25.5285 14.8804 26.0237 14.4902C26.5984 14.1432 26.866 13.9365 27.2932 13.9365Z" stroke="white"/>
<path d="M20.6395 22.0908C22.5572 22.2286 24.0583 23.7995 24.1083 25.7227L24.1415 26.9619H24.1405V31.4658L20.6962 31.2363L20.6757 31.2344L20.6542 31.2354L12.8309 31.3682H12.8251L8.7157 31.4863L8.56628 26.3379L8.57996 26.0605C8.67094 24.0387 10.2214 22.3967 12.2137 22.1738L12.4081 22.1562L16.4442 21.8926L20.6395 22.0908Z" stroke="white"/>
<path d="M27.4143 21.4096C25.91 21.373 26.1931 21.4064 24.8344 21.4094C24.7714 21.4095 24.741 21.4913 24.7874 21.5339C26.016 22.6616 26.2445 25.1149 26.0504 26.7217V31.9208C26.0504 31.9563 26.0782 31.9855 26.1137 31.9869C27.0305 32.0234 28.1599 31.9877 29.0533 31.851C29.4602 31.7888 29.8057 31.5511 30.1285 31.3252C31.2364 30.5499 31.4217 29.5838 31.8522 28.4992C32.0001 28.1265 31.9014 27.6103 31.9014 27.2191C31.9014 26.8088 31.9633 26.3537 31.8796 25.9489C31.8021 25.5744 31.7518 25.1292 31.5841 24.7771C31.4093 24.4104 31.4706 23.93 31.2557 23.5709C31.0049 23.1518 30.7383 22.6981 30.5225 22.2613C30.404 22.0215 29.5414 21.755 29.242 21.6951C28.6972 21.5862 27.9726 21.4231 27.4143 21.4096Z" stroke="white" stroke-linecap="round"/>
</svg>
