<svg width="40" height="40" viewBox="0 0 40 40" fill="none" xmlns="http://www.w3.org/2000/svg">
<path d="M7.29663 23.5936C7.53018 21.6472 7.2903 10.8022 7.2903 8.83741C7.74883 8.66944 10.0947 8.8009 10.5749 8.8009C11.2303 8.8009 11.8504 9.01773 12.4873 9.01773C14.4118 9.01773 16.3978 8.66411 18.3204 8.9334C19.1601 9.05102 20.0025 9.01773 20.85 9.01773C21.9418 9.01773 22.9862 9.23456 24.0676 9.23456H32.3392C32.7421 9.23456 32.84 9.18003 32.84 9.69232C32.84 10.1959 32.7552 10.6803 32.749 11.174C32.7258 13.0205 32.8491 14.901 32.7034 16.7394C32.6118 17.8952 32.4758 18.9528 32.4758 20.1243C32.4758 21.384 32.4844 22.6815 32.3645 23.9309C32.2843 24.7658 32.2589 27.6267 32.2589 28.5615C32.2589 29.3804 32.4882 30.3688 32.3645 31.1789C30.5802 31.0258 25.3279 30.9712 23.5434 31.1346C22.2616 31.252 20.8866 31.1346 19.6054 31.1346C18.9232 31.1346 18.2391 31.2886 17.5666 31.237C16.3913 31.1467 15.296 31.0778 14.1213 30.9919C12.3316 30.8611 10.4105 30.9269 8.62511 31.1346C8.36805 31.1645 7.48559 31.1553 7.28145 30.8515C7.28145 29.9918 7.16003 26.7173 7.16003 25.8764C7.16003 25.0983 7.20407 24.365 7.29663 23.5936Z" fill="#D93F0F" stroke="white" stroke-width="1.15503" stroke-linecap="round"/>
<path d="M10.3067 11.295C9.7856 10.8866 8.87709 10.2331 8.14109 9.62307C7.80355 9.3433 8.01042 8.85377 8.44873 8.86343L32.0908 9.38467C32.2868 9.38899 32.3727 9.66044 32.2181 9.7809C31.3843 10.4305 29.9082 11.6583 29.7236 12.0539C29.4624 12.6135 28.7522 13.0257 28.3778 13.4633C27.6129 14.3575 26.624 14.8722 25.7522 15.6136C25.4163 15.8992 25.053 16.1196 24.715 16.4146C24.2258 16.8417 23.8825 17.4357 23.3794 17.8421C22.9278 18.207 22.5157 18.3192 22.0034 18.5589C21.4396 18.8225 20.9356 19.106 20.4705 19.5768C20.2872 19.7622 20.1014 20.1653 19.8887 19.884C19.6347 19.548 19.315 19.2612 19.0438 18.9383C18.7163 18.5484 18.3514 18.119 17.951 17.8542C17.6966 17.6859 17.3859 17.4928 17.177 17.2579C16.8544 16.8951 15.354 15.3378 15.0319 14.9691C14.5927 14.4462 14.0785 14.0073 13.5547 13.6139C12.4821 12.8085 11.3687 12.1273 10.3067 11.295Z" fill="#D93F0F" stroke="white" stroke-width="1.15503" stroke-linecap="round"/>
</svg>
