<svg width="40" height="40" viewBox="0 0 40 40" fill="none" xmlns="http://www.w3.org/2000/svg">
<path d="M19.9497 7.39258C19.9954 7.50108 19.9879 7.60803 19.9912 7.72448C20.0021 8.11114 20.033 8.49601 20.0589 8.88176C20.1019 9.52265 20.0676 10.1767 20.0676 10.8186C20.0676 11.5513 20.0604 12.2846 20.0676 13.0174C20.0707 13.3261 20.1427 13.6303 20.1462 13.9389C20.1496 14.2329 20.1462 14.527 20.1462 14.821C20.1462 15.0831 20.1462 15.3451 20.1462 15.6071" stroke="white" stroke-linecap="round"/>
<path d="M19.8588 7.43506C19.8588 7.48235 19.7974 7.5491 19.7627 7.57728C19.6049 7.70572 19.4338 7.81917 19.2585 7.92269C19.1039 8.01397 19.0252 8.12121 18.9408 8.27548C18.8877 8.37241 18.7952 8.44848 18.745 8.54884" stroke="white" stroke-linecap="round"/>
<path d="M19.9585 7.40088C20.0453 7.40956 20.1218 7.4941 20.1838 7.5468C20.394 7.72521 20.625 7.87942 20.8442 8.04643C20.9533 8.12962 21.1018 8.19825 21.1886 8.30687C21.2083 8.33139 21.2421 8.33895 21.2551 8.36505" stroke="white" stroke-linecap="round"/>
<path d="M17.4688 10.7985C16.579 10.6144 15.1888 11.061 14.3056 10.8129C13.8608 10.688 13.4445 10.7562 13.006 10.8687C11.5335 11.2463 9.44112 11.0391 7.94379 11.0391C7.31442 11.0391 7.53892 13.986 7.53892 14.5769C7.53892 16.4161 7.45805 18.2982 7.54392 20.1341C7.63059 21.9872 7.62889 28.5194 7.62889 30.3789C7.62889 30.9422 7.53892 31.4409 7.53892 32.0004C7.53892 32.5352 7.52541 32.3984 7.99878 32.3984C10.4169 32.3984 13.3285 32.3328 15.7451 32.4721C20.3227 32.7361 24.8605 32.5311 29.4409 32.5311C30.134 32.5311 30.8272 32.5311 31.5203 32.5311C31.6981 32.5311 31.9549 32.6202 32.0501 32.3394C32.5094 30.9849 32.5 29.1 32.5 27.6224C32.5 26.3885 32.32 25.1877 32.32 23.9667C32.32 23.5233 32.1218 16.6111 31.9766 16.2255C31.9766 15.8672 31.856 11.6763 31.7102 11.4077C31.6048 11.2133 31.684 10.958 31.4703 10.877C31.168 10.7624 30.8693 10.7738 30.5606 10.7738C28.9825 10.7738 27.4287 10.9065 25.857 10.9065C24.8126 10.9065 22.9902 10.3119 22 10.7986" stroke="white" stroke-linecap="round"/>
</svg>
